<?xml version="1.0" encoding="utf-8" standalone="yes"?>
<!DOCTYPE svg PUBLIC "-//W3C//DTD SVG 1.1//EN" "http://www.w3.org/Graphics/SVG/1.1/DTD/svg11.dtd">
<svg width="866" height="734" viewBox="0 0 866 734" style="fill:none;stroke:none;fill-rule:evenodd;clip-rule:evenodd;stroke-linecap:round;stroke-linejoin:round;stroke-miterlimit:1.5;" version="1.1" xmlns="http://www.w3.org/2000/svg" xmlns:xlink="http://www.w3.org/1999/xlink"><style class="text-font-style fontImports" data-font-family="Roboto">@import url('https://fonts.googleapis.com/css2?family=Roboto:wght@400;700&amp;display=block');</style><rect id="" x="0" y="0" width="866" height="734" style="fill: #ffffff;"></rect><g id="items" style="isolation: isolate"><g id="blend" style="mix-blend-mode: normal"><g id="g-root-tf_v6r75w3dnrig-fill" data-item-order="-632448" transform="translate(-9, -9)"><g id="tf_v6r75w3dnrig-fill" stroke="none" fill="#ffffff"><g><path d="M 10 10L 874 10L 874 742L 10 742Z"></path></g></g></g><g id="g-root-0.g-0_fr_91j3t03dmepv-fill" data-item-order="-518920" transform="translate(15, 219)"><g id="0.g-0_fr_91j3t03dmepv-fill" stroke="none" fill="#666666"><g><path d="M 826 466L 562.26 279.19C 553.2 272.77 541.22 273.04 532.46 279.86L 386.98 393.01C 370.71 405.67 351.21 412.58 330.59 413C 309.97 413.43 290.21 407.31 273.43 395.33L 113.72 281.25C 99.43 271.04 91.04 255.11 90.7 237.55C 90.36 219.99 98.13 203.75 112.02 193L 146.06 166.65C 149.85 163.71 151.97 159.28 151.87 154.49C 151.77 149.7 149.48 145.35 145.57 142.57L 10 46L 10 10L 163.006 118.57C 174.726 126.91 181.606 139.95 181.896 154.33C 182.186 168.71 175.826 182.01 164.456 190.81L 130.416 217.16C 124.106 222.05 120.576 229.43 120.726 237.41C 120.876 245.39 124.696 252.63 131.186 257.27L 144.001 266.424C 144.192 278.849 163.215 292.054 163.215 292.054L 171.746 298C 171.746 298 174.401 295.07 177.687 290.485L 252.008 343.572C 252.003 343.793 252 344.015 252 344.237C 252 356.716 271.215 370.054 271.215 370.054L 279.2 375.619L 279.746 376C 279.746 376 282.622 372.826 286.091 367.917L 290.896 371.35C 314.116 387.93 346.066 387.28 368.586 369.77L 438.404 315.468C 438.92 315.85 439.215 316.054 439.215 316.054L 447.746 322C 447.746 322 459.14 309.427 463.924 295.619L 514.066 256.62C 533.346 241.62 559.696 241.04 579.626 255.15L 630.019 290.913C 630.687 303.193 649.215 316.054 649.215 316.054L 657.746 322C 657.746 322 660.319 319.16 663.533 314.698L 826 430L 826 466ZM 826.000453 466.000563L 562.260453 279.191063C 553.200453 272.771062 541.220453 273.041063 532.460453 279.861063L 386.980453 393.011562C 370.710453 405.671563 351.210453 412.580563 330.590453 413.000563C 309.970453 413.430563 290.210453 407.310563 273.430453 395.330563L 113.720153 281.251063C 100.917553 272.103763 92.850553 258.365163 91.065553 242.976563C 90.774253 245.465263 90.650453 247.995063 90.700153 250.553063C 91.040153 268.035962 99.430153 283.896163 113.720153 294.061363L 273.430453 407.640563C 290.210453 419.568563 309.970453 425.661563 330.590453 425.233563C 351.210453 424.815563 370.710453 417.935563 386.980453 405.331563L 532.460453 292.677463C 541.220453 285.887363 553.200453 285.618563 562.260453 292.010363L 809.000453 466.000563L 826.000453 466.000563Z"></path></g></g><g id="0.g-0_fr_91j3t03dmepv-fill" stroke="none" fill="#666666"><g><path d="M 121.56828 243.446425C 122.95578 238.266125 126.00748 233.654125 130.41628 230.252525L 164.45628 204.018025C 175.82628 195.256625 182.18628 182.015025 181.89628 167.698025C 181.85698 165.755725 181.69628 163.838025 181.41878 161.953125C 179.74068 173.342325 173.78468 183.591225 164.45628 190.811025L 130.41628 217.161125C 124.10628 222.051125 120.57628 229.431125 120.72628 237.411125C 120.76518 239.483625 121.05178 241.506225 121.56828 243.446425Z"></path></g></g><g id="0.g-0_fr_91j3t03dmepv-fill" stroke="none" fill="#666666"><g><path d="M 10 46L 10 59.8421L 145.57 155.989C 147.627 157.445 149.236 159.333 150.313 161.491C 151.377 159.359 151.922 156.973 151.87 154.49C 151.77 149.7 149.48 145.35 145.57 142.57L 10 46Z"></path></g></g></g><g id="g-root-1.g-1_fr_1lw64903dmdqn-fill" data-item-order="-518898" transform="translate(149, 447)"><g id="1.g-1_fr_1lw64903dmdqn-fill" stroke="none" fill="#4e88e7"><g><path d="M 48.198944 35.346675C 48.198944 41.834975 43.952544 48.449675 38.706944 50.112375C 33.461344 51.775075 29.214844 47.871275 29.214844 41.383075C 29.214844 34.894875 33.461344 28.280175 38.706944 26.617475C 43.952544 24.954775 48.198944 28.858475 48.198944 35.346675Z"></path></g></g><g id="1.g-1_fr_1lw64903dmdqn-fill" stroke="none" fill="#4e88e7"><g><path d="M 37.746188 69.998863C 37.746188 69.998863 56.000088 49.856463 56.000088 32.560563C 56.000088 20.081163 47.824288 12.571763 37.746188 15.779763C 27.668088 18.987763 19.492188 31.702063 19.492188 44.181462C 19.492188 56.660963 37.746188 69.998863 37.746188 69.998863ZM 38.706888 50.109463C 43.952488 48.446763 48.198988 41.831963 48.198988 35.343763C 48.198988 28.855562 43.952488 24.951863 38.706888 26.614562C 33.461288 28.277263 29.214788 34.891963 29.214788 41.380163C 29.214788 47.868363 33.461288 51.772163 38.706888 50.109463Z"></path></g></g><g id="1.g-1_fr_1lw64903dmdqn-fill" stroke="none" fill="#4e88e7"><g><path d="M 47.8773 16.3526L 38.4666 11.353C 35.5556 9.8439 32.0393 9.5367 28.254 10.7386C 18.1759 13.9465 10 25.7572 10 38.2367C 10 50.7161 29.2147 64.054 29.2147 64.054L 37.746 70C 37.746 70 19.4921 56.6621 19.4921 44.1827C 19.4921 31.7033 27.6679 18.9889 37.746 15.7809C 41.4937 14.588 44.9783 14.8771 47.8773 16.3526Z"></path></g></g></g><g id="g-root-2.g-2_fr_1hgcm4k3dmeiz-fill" data-item-order="-518890" transform="translate(257, 525)"><g id="2.g-2_fr_1hgcm4k3dmeiz-fill" stroke="none" fill="#3cc583"><g><path d="M 48.198944 35.346675C 48.198944 41.834975 43.952544 48.449675 38.706944 50.112375C 33.461344 51.775075 29.214844 47.871275 29.214844 41.383075C 29.214844 34.894875 33.461344 28.280175 38.706944 26.617475C 43.952544 24.954775 48.198944 28.858475 48.198944 35.346675Z"></path></g></g><g id="2.g-2_fr_1hgcm4k3dmeiz-fill" stroke="none" fill="#3cc583"><g><path d="M 37.746188 69.998863C 37.746188 69.998863 56.000088 49.856463 56.000088 32.560563C 56.000088 20.081163 47.824288 12.571763 37.746188 15.779763C 27.668088 18.987763 19.492188 31.702063 19.492188 44.181462C 19.492188 56.660963 37.746188 69.998863 37.746188 69.998863ZM 38.706888 50.109463C 43.952488 48.446763 48.198988 41.831963 48.198988 35.343763C 48.198988 28.855562 43.952488 24.951863 38.706888 26.614562C 33.461288 28.277263 29.214788 34.891963 29.214788 41.380163C 29.214788 47.868363 33.461288 51.772163 38.706888 50.109463Z"></path></g></g><g id="2.g-2_fr_1hgcm4k3dmeiz-fill" stroke="none" fill="#3cc583"><g><path d="M 47.8773 16.3526L 38.4666 11.353C 35.5556 9.8439 32.0393 9.5367 28.254 10.7386C 18.1759 13.9465 10 25.7572 10 38.2367C 10 50.7161 29.2147 64.054 29.2147 64.054L 37.746 70C 37.746 70 19.4921 56.6621 19.4921 44.1827C 19.4921 31.7033 27.6679 18.9889 37.746 15.7809C 41.4937 14.588 44.9783 14.8771 47.8773 16.3526Z"></path></g></g></g><g id="g-root-3.g-3_fr_1d15l383dmc5j-fill" data-item-order="-518882" transform="translate(425, 471)"><g id="3.g-3_fr_1d15l383dmc5j-fill" stroke="none" fill="#e0cb15"><g><path d="M 48.198944 35.346675C 48.198944 41.834975 43.952544 48.449675 38.706944 50.112375C 33.461344 51.775075 29.214844 47.871275 29.214844 41.383075C 29.214844 34.894875 33.461344 28.280175 38.706944 26.617475C 43.952544 24.954775 48.198944 28.858475 48.198944 35.346675Z"></path></g></g><g id="3.g-3_fr_1d15l383dmc5j-fill" stroke="none" fill="#e0cb15"><g><path d="M 37.746188 69.998863C 37.746188 69.998863 56.000088 49.856463 56.000088 32.560563C 56.000088 20.081163 47.824288 12.571763 37.746188 15.779763C 27.668088 18.987763 19.492188 31.702063 19.492188 44.181462C 19.492188 56.660963 37.746188 69.998863 37.746188 69.998863ZM 38.706888 50.109463C 43.952488 48.446763 48.198988 41.831963 48.198988 35.343763C 48.198988 28.855562 43.952488 24.951863 38.706888 26.614562C 33.461288 28.277263 29.214788 34.891963 29.214788 41.380163C 29.214788 47.868363 33.461288 51.772163 38.706888 50.109463Z"></path></g></g><g id="3.g-3_fr_1d15l383dmc5j-fill" stroke="none" fill="#e0cb15"><g><path d="M 47.8773 16.3526L 38.4666 11.353C 35.5556 9.8439 32.0393 9.5367 28.254 10.7386C 18.1759 13.9465 10 25.7572 10 38.2367C 10 50.7161 29.2147 64.054 29.2147 64.054L 37.746 70C 37.746 70 19.4921 56.6621 19.4921 44.1827C 19.4921 31.7033 27.6679 18.9889 37.746 15.7809C 41.4937 14.588 44.9783 14.8771 47.8773 16.3526Z"></path></g></g></g><g id="g-root-4.g-4_fr_zpp2pw3dmdqj-fill" data-item-order="-518874" transform="translate(635, 471)"><g id="4.g-4_fr_zpp2pw3dmdqj-fill" stroke="none" fill="#e55753"><g><path d="M 48.198944 35.346675C 48.198944 41.834975 43.952544 48.449675 38.706944 50.112375C 33.461344 51.775075 29.214844 47.871275 29.214844 41.383075C 29.214844 34.894875 33.461344 28.280175 38.706944 26.617475C 43.952544 24.954775 48.198944 28.858475 48.198944 35.346675Z"></path></g></g><g id="4.g-4_fr_zpp2pw3dmdqj-fill" stroke="none" fill="#e55753"><g><path d="M 37.746188 69.998863C 37.746188 69.998863 56.000088 49.856463 56.000088 32.560563C 56.000088 20.081163 47.824288 12.571763 37.746188 15.779763C 27.668088 18.987763 19.492188 31.702063 19.492188 44.181462C 19.492188 56.660963 37.746188 69.998863 37.746188 69.998863ZM 38.706888 50.109463C 43.952488 48.446763 48.198988 41.831963 48.198988 35.343763C 48.198988 28.855562 43.952488 24.951863 38.706888 26.614562C 33.461288 28.277263 29.214788 34.891963 29.214788 41.380163C 29.214788 47.868363 33.461288 51.772163 38.706888 50.109463Z"></path></g></g><g id="4.g-4_fr_zpp2pw3dmdqj-fill" stroke="none" fill="#e55753"><g><path d="M 47.8773 16.3526L 38.4666 11.353C 35.5556 9.8439 32.0393 9.5367 28.254 10.7386C 18.1759 13.9465 10 25.7572 10 38.2367C 10 50.7161 29.2147 64.054 29.2147 64.054L 37.746 70C 37.746 70 19.4921 56.6621 19.4921 44.1827C 19.4921 31.7033 27.6679 18.9889 37.746 15.7809C 41.4937 14.588 44.9783 14.8771 47.8773 16.3526Z"></path></g></g></g><g id="g-root-tx__v9vklg3dmeiv-fill" data-item-order="0" transform="translate(339, 63)"><g id="tx__v9vklg3dmeiv-fill" stroke="none" fill="#484848"><g><text style="font: bold 20px Roboto, sans-serif; white-space: pre;" font-weight="bold" font-size="20px" font-family="Roboto, sans-serif"><tspan x="15.43" y="34" dominant-baseline="ideographic">기업 전략의 중요성</tspan></text></g></g></g><g id="g-root-tx__dj816s3dmdq8-fill" data-item-order="0" transform="translate(219, 135)"><g id="tx__dj816s3dmdq8-fill" stroke="none" fill="#3a4455"><g><text style="font: bold 20px Roboto, sans-serif; white-space: pre;" font-weight="bold" font-size="20px" font-family="Roboto, sans-serif"><tspan x="12" y="34" dominant-baseline="ideographic">목표 설정</tspan></text></g></g></g><g id="g-root-tx__zrkhz83dmcqy-fill" data-item-order="0" transform="translate(411, 135)"><g id="tx__zrkhz83dmcqy-fill" stroke="none" fill="#374840"><g><text style="font: bold 20px Roboto, sans-serif; white-space: pre;" font-weight="bold" font-size="20px" font-family="Roboto, sans-serif"><tspan x="12" y="34" dominant-baseline="ideographic">자원 배분</tspan></text></g></g></g><g id="g-root-tx__1uuxhxg3dme4s-fill" data-item-order="0" transform="translate(603, 135)"><g id="tx__1uuxhxg3dme4s-fill" stroke="none" fill="#46432d"><g><text style="font: bold 20px Roboto, sans-serif; white-space: pre;" font-weight="bold" font-size="20px" font-family="Roboto, sans-serif"><tspan x="12" y="34" dominant-baseline="ideographic">위험 관리</tspan></text></g></g></g><g id="g-root-tx__1qdv1ms3dmcqx-fill" data-item-order="0" transform="translate(219, 171)"><g id="tx__1qdv1ms3dmcqx-fill" stroke="none" fill="#3a4455"><g><text style="font: 15px Roboto, sans-serif; white-space: pre;" font-size="15px" font-family="Roboto, sans-serif"><tspan x="12" y="30.6" dominant-baseline="ideographic">명확한 목표를 통해 조</tspan><tspan x="12" y="48.6" dominant-baseline="ideographic">직의 방향성을 제시합</tspan><tspan x="12" y="66.6" dominant-baseline="ideographic">니다</tspan></text></g></g></g><g id="g-root-tx__i0ahhg3dmf43-fill" data-item-order="0" transform="translate(411, 171)"><g id="tx__i0ahhg3dmf43-fill" stroke="none" fill="#374840"><g><text style="font: 15px Roboto, sans-serif; white-space: pre;" font-size="15px" font-family="Roboto, sans-serif"><tspan x="12" y="30.6" dominant-baseline="ideographic">제한된 자원을 효율적</tspan><tspan x="12" y="48.6" dominant-baseline="ideographic">으로 배분하여 최대의 </tspan><tspan x="12" y="66.6" dominant-baseline="ideographic">성과를 이끌어냅니다</tspan></text></g></g></g><g id="g-root-tx__1cuad503dnrwl-fill" data-item-order="0" transform="translate(603, 171)"><g id="tx__1cuad503dnrwl-fill" stroke="none" fill="#46432d"><g><text style="font: 15px Roboto, sans-serif; white-space: pre;" font-size="15px" font-family="Roboto, sans-serif"><tspan x="12" y="30.6" dominant-baseline="ideographic">시장의 변화에 대한 대</tspan><tspan x="12" y="48.6" dominant-baseline="ideographic">응 전략을 마련하여 리</tspan><tspan x="12" y="66.6" dominant-baseline="ideographic">스크를 최소화합니다</tspan></text></g></g></g><g id="g-root-tx__qntblw3dnr4e-fill" data-item-order="0" transform="translate(219, 273)"><g id="tx__qntblw3dnr4e-fill" stroke="none" fill="#543a3a"><g><text style="font: bold 20px Roboto, sans-serif; white-space: pre;" font-weight="bold" font-size="20px" font-family="Roboto, sans-serif"><tspan x="12" y="34" dominant-baseline="ideographic">경쟁 우위</tspan></text></g></g></g><g id="g-root-tx__dcct8k3dnspb-fill" data-item-order="0" transform="translate(219, 309)"><g id="tx__dcct8k3dnspb-fill" stroke="none" fill="#543a3a"><g><text style="font: 15px Roboto, sans-serif; white-space: pre;" font-size="15px" font-family="Roboto, sans-serif"><tspan x="12" y="30.6" dominant-baseline="ideographic">차별화된 전략을 통해 </tspan><tspan x="12" y="48.6" dominant-baseline="ideographic">경쟁자와의 차별성을 </tspan><tspan x="12" y="66.6" dominant-baseline="ideographic">유지합니다</tspan></text></g></g></g><g id="g-root-tf_v6r75w3dnrig-stroke" data-item-order="-632448" transform="translate(-9, -9)"></g><g id="g-root-0.g-0_fr_91j3t03dmepv-stroke" data-item-order="-518920" transform="translate(15, 219)"><g id="0.g-0_fr_91j3t03dmepv-stroke" fill="none" stroke-linecap="round" stroke-linejoin="round" stroke-miterlimit="4" stroke="#ffffff" stroke-width="2"><g><path d="M 826.000153 466.001063L 562.260153 279.191063C 553.200153 272.771062 541.220153 273.041063 532.460153 279.861063L 386.980153 393.011063C 370.710153 405.671063 351.210153 412.581063 330.590153 413.001063C 309.970153 413.431063 290.210153 407.311063 273.430153 395.331063L 113.720153 281.251063C 100.917553 272.103763 92.850553 258.365163 91.065553 242.976563C 90.774253 245.465263 90.650453 247.995063 90.700153 250.553063C 91.040153 268.035962 99.430153 283.896163 113.720153 294.061363L 273.430153 407.640963C 290.210153 419.568463 309.970153 425.661663 330.590153 425.233463C 351.210153 424.815363 370.710153 417.935663 386.980153 405.331163L 532.460153 292.677463C 541.220153 285.887363 553.200153 285.618563 562.260153 292.010363L 808.999953 466.001063"></path></g></g><g id="0.g-0_fr_91j3t03dmepv-stroke" fill="none" stroke-linecap="round" stroke-linejoin="round" stroke-miterlimit="4" stroke="#ffffff" stroke-width="2"><g><path d="M 121.56828 243.446425C 122.95578 238.266125 126.00748 233.654125 130.41628 230.252525L 164.45628 204.018025C 175.82628 195.256625 182.18628 182.015025 181.89628 167.698025C 181.85698 165.755725 181.69628 163.838025 181.41878 161.953125C 179.74068 173.342325 173.78468 183.591225 164.45628 190.811025L 130.41628 217.161125C 124.10628 222.051125 120.57628 229.431125 120.72628 237.411125C 120.76518 239.483625 121.05178 241.506225 121.56828 243.446425Z"></path></g></g><g id="0.g-0_fr_91j3t03dmepv-stroke" fill="none" stroke-linecap="round" stroke-linejoin="round" stroke-miterlimit="4" stroke="#ffffff" stroke-width="2"><g><path d="M 10 59.8421L 145.57 155.9886C 147.627 157.4446 149.2356 159.3333 150.3128 161.4908C 151.3772 159.3588 151.9218 156.9727 151.87 154.49C 151.77 149.7 149.48 145.35 145.57 142.57L 10 46M 826 466L 562.26 279.19C 553.2 272.77 541.22 273.04 532.46 279.86L 386.98 393.01C 370.71 405.67 351.21 412.58 330.59 413C 309.97 413.43 290.21 407.31 273.43 395.33L 113.72 281.25C 99.43 271.04 91.04 255.11 90.7 237.55C 90.36 219.99 98.13 203.75 112.02 193L 146.06 166.65C 149.85 163.71 151.97 159.28 151.87 154.49C 151.77 149.7 149.48 145.35 145.57 142.57L 10 46M 148.6183 126.5473L 154.6427 130.8436C 156.6608 132.2806 158.4476 133.903 160 135.6675M 166.5 148.2934C 167.6219 152.6725 167.7133 157.274 166.7661 161.6948M 146.9901 185.6298L 155.5 179.0424C 157.3372 177.6198 158.9469 176.0353 160.3309 174.3291M 114.6807 212.0866C 116.6375 209.6745 118.9106 207.4378 121.5 205.4325L 130.0102 198.8449M 107 228.5699C 105.6605 234.8112 105.7859 241.3066 107.3654 247.4916M 553.729 260.7479C 549.3978 260.151 544.9949 260.2496 540.6946 261.0398M 129.5 274.7114L 122.8454 269.958C 120.1804 268.0543 117.8226 265.907 115.774 263.5725M 566.1971 264.5611C 568.1342 265.5133 570.0142 266.6278 571.8176 267.9048L 578.4117 272.5756M 516.8841 273.7161L 522.9456 269.0016C 524.6898 267.6446 526.5178 266.4467 528.41 265.4085M 384.7556 377.0157L 378.694 381.7303C 376.3976 383.5161 374.028 385.1623 371.5965 386.6686M 289.1816 388.3497C 286.6908 386.9437 284.2561 385.3954 281.8888 383.7046L 275.2342 378.9513M 339.2394 398.1383C 344.9351 397.4115 350.5674 396.0783 356.0345 394.1409M 305.0352 395.1816C 310.577 396.8945 316.259 397.9968 321.9795 398.4906M 123.6609 109.0567L 137.3392 118.8113M 99.5609 91.8699L 113.2392 101.6245M 75.4608 74.6831L 89.1392 84.4378M 51.3608 57.4963L 65.0392 67.251M 27.2608 40.3095L 40.9392 50.0642M 10 28L 16.8391 32.8774M 141.9101 283.4897L 156.8467 294.1588M 168.5284 302.503L 183.465 313.1721M 195.1467 321.5163L 210.0834 332.1855M 221.7651 340.5297L 236.7017 351.1988M 248.3834 359.543L 263.32 370.2121M 409.1776 357.754L 395.4756 368.4111M 433.4243 338.8957L 419.7223 349.5527M 457.6709 320.0374L 443.9688 330.6944M 481.9175 301.179L 468.2155 311.8361M 506.1641 282.3207L 492.4621 292.9778M 590.2056 281.1551L 605.0257 291.6527M 616.5817 299.8381L 631.4017 310.3357M 642.9576 318.5211L 657.7776 329.0187M 669.3336 337.2041L 684.1536 347.7017M 695.7096 355.8871L 710.5296 366.3846M 722.0856 374.5701L 736.9056 385.0677M 748.4615 393.2531L 763.2816 403.7506M 774.8375 411.9361L 789.6576 422.4336M 801.2135 430.6191L 816.0336 441.1166M 10 10L 163.0063 118.57C 174.7263 126.91 181.6063 139.95 181.8963 154.33C 182.1862 168.71 175.8262 182.01 164.4563 190.81L 130.4163 217.16C 124.1063 222.05 120.5762 229.43 120.7262 237.41C 120.8763 245.39 124.6963 252.63 131.1862 257.27L 144.0014 266.4238C 144.1916 278.8491 163.2147 292.054 163.2147 292.054L 171.746 297.9998C 171.746 297.9998 174.4014 295.0697 177.6866 290.485L 252.0077 343.5721C 252.0026 343.7934 252 344.0149 252 344.2367C 252 356.7161 271.2147 370.054 271.2147 370.054L 279.746 375.9998C 279.746 375.9998 282.6219 372.8264 286.0906 367.9173L 290.8963 371.35C 314.1163 387.93 346.0663 387.28 368.5862 369.77L 438.4042 315.4677C 438.9202 315.8496 439.2147 316.054 439.2147 316.054L 447.7462 321.9998C 447.7462 321.9998 459.1399 309.4274 463.9241 295.619L 514.0663 256.62C 533.3463 241.62 559.6962 241.04 579.6262 255.15L 630.0186 290.9131C 630.6873 303.1932 649.2147 316.054 649.2147 316.054L 657.7462 321.9998C 657.7462 321.9998 660.3193 319.1604 663.5334 314.6984L 826 430"></path></g></g></g><g id="g-root-1.g-1_fr_1lw64903dmdqn-stroke" data-item-order="-518898" transform="translate(149, 447)"><g id="1.g-1_fr_1lw64903dmdqn-stroke" fill="none" stroke-linecap="round" stroke-linejoin="round" stroke-miterlimit="4" stroke="#ffffff" stroke-width="2"><g><path d="M 48.198944 35.346675C 48.198944 41.834975 43.952544 48.449675 38.706944 50.112375C 33.461244 51.775075 29.214844 47.871275 29.214844 41.383075C 29.214844 34.894875 33.461244 28.280175 38.706944 26.617475C 43.952544 24.954775 48.198944 28.858475 48.198944 35.346675Z"></path></g></g><g id="1.g-1_fr_1lw64903dmdqn-stroke" fill="none" stroke-linecap="round" stroke-linejoin="round" stroke-miterlimit="4" stroke="#ffffff" stroke-width="2"><g><path d="M 37.746188 69.998863C 37.746188 69.998863 56.000088 49.856463 56.000088 32.560563C 56.000088 20.081163 47.824288 12.571763 37.746188 15.779763C 27.668088 18.987763 19.492188 31.702063 19.492188 44.181462C 19.492188 56.660963 37.746188 69.998863 37.746188 69.998863ZM 38.706888 50.109463C 43.952488 48.446763 48.198988 41.831963 48.198988 35.343763C 48.198988 28.855562 43.952488 24.951763 38.706888 26.614562C 33.461288 28.277263 29.214788 34.891963 29.214788 41.380163C 29.214788 47.868363 33.461288 51.772163 38.706888 50.109463Z"></path></g></g><g id="1.g-1_fr_1lw64903dmdqn-stroke" fill="none" stroke-linecap="round" stroke-linejoin="round" stroke-miterlimit="4" stroke="#ffffff" stroke-width="2"><g><path d="M 47.8773 16.3526L 38.4666 11.353C 35.5556 9.8439 32.0393 9.5367 28.254 10.7386C 18.1759 13.9465 10 25.7572 10 38.2367C 10 50.7161 29.2147 64.054 29.2147 64.054L 37.746 70C 37.746 70 19.4921 56.6621 19.4921 44.1827C 19.4921 31.7033 27.6679 18.9889 37.746 15.7809C 41.4937 14.588 44.9783 14.8771 47.8773 16.3526Z"></path></g></g></g><g id="g-root-2.g-2_fr_1hgcm4k3dmeiz-stroke" data-item-order="-518890" transform="translate(257, 525)"><g id="2.g-2_fr_1hgcm4k3dmeiz-stroke" fill="none" stroke-linecap="round" stroke-linejoin="round" stroke-miterlimit="4" stroke="#ffffff" stroke-width="2"><g><path d="M 48.198944 35.346675C 48.198944 41.834975 43.952544 48.449675 38.706944 50.112375C 33.461244 51.775075 29.214844 47.871275 29.214844 41.383075C 29.214844 34.894875 33.461244 28.280175 38.706944 26.617475C 43.952544 24.954775 48.198944 28.858475 48.198944 35.346675Z"></path></g></g><g id="2.g-2_fr_1hgcm4k3dmeiz-stroke" fill="none" stroke-linecap="round" stroke-linejoin="round" stroke-miterlimit="4" stroke="#ffffff" stroke-width="2"><g><path d="M 37.746188 69.998863C 37.746188 69.998863 56.000088 49.856463 56.000088 32.560563C 56.000088 20.081163 47.824288 12.571763 37.746188 15.779763C 27.668088 18.987763 19.492188 31.702063 19.492188 44.181462C 19.492188 56.660963 37.746188 69.998863 37.746188 69.998863ZM 38.706888 50.109463C 43.952488 48.446763 48.198988 41.831963 48.198988 35.343763C 48.198988 28.855562 43.952488 24.951763 38.706888 26.614562C 33.461288 28.277263 29.214788 34.891963 29.214788 41.380163C 29.214788 47.868363 33.461288 51.772163 38.706888 50.109463Z"></path></g></g><g id="2.g-2_fr_1hgcm4k3dmeiz-stroke" fill="none" stroke-linecap="round" stroke-linejoin="round" stroke-miterlimit="4" stroke="#ffffff" stroke-width="2"><g><path d="M 47.8773 16.3526L 38.4666 11.353C 35.5556 9.8439 32.0393 9.5367 28.254 10.7386C 18.1759 13.9465 10 25.7572 10 38.2367C 10 50.7161 29.2147 64.054 29.2147 64.054L 37.746 70C 37.746 70 19.4921 56.6621 19.4921 44.1827C 19.4921 31.7033 27.6679 18.9889 37.746 15.7809C 41.4937 14.588 44.9783 14.8771 47.8773 16.3526Z"></path></g></g></g><g id="g-root-3.g-3_fr_1d15l383dmc5j-stroke" data-item-order="-518882" transform="translate(425, 471)"><g id="3.g-3_fr_1d15l383dmc5j-stroke" fill="none" stroke-linecap="round" stroke-linejoin="round" stroke-miterlimit="4" stroke="#ffffff" stroke-width="2"><g><path d="M 48.198944 35.346675C 48.198944 41.834975 43.952544 48.449675 38.706944 50.112375C 33.461244 51.775075 29.214844 47.871275 29.214844 41.383075C 29.214844 34.894875 33.461244 28.280175 38.706944 26.617475C 43.952544 24.954775 48.198944 28.858475 48.198944 35.346675Z"></path></g></g><g id="3.g-3_fr_1d15l383dmc5j-stroke" fill="none" stroke-linecap="round" stroke-linejoin="round" stroke-miterlimit="4" stroke="#ffffff" stroke-width="2"><g><path d="M 37.746188 69.998863C 37.746188 69.998863 56.000088 49.856463 56.000088 32.560563C 56.000088 20.081163 47.824288 12.571763 37.746188 15.779763C 27.668088 18.987763 19.492188 31.702063 19.492188 44.181462C 19.492188 56.660963 37.746188 69.998863 37.746188 69.998863ZM 38.706888 50.109463C 43.952488 48.446763 48.198988 41.831963 48.198988 35.343763C 48.198988 28.855562 43.952488 24.951763 38.706888 26.614562C 33.461288 28.277263 29.214788 34.891963 29.214788 41.380163C 29.214788 47.868363 33.461288 51.772163 38.706888 50.109463Z"></path></g></g><g id="3.g-3_fr_1d15l383dmc5j-stroke" fill="none" stroke-linecap="round" stroke-linejoin="round" stroke-miterlimit="4" stroke="#ffffff" stroke-width="2"><g><path d="M 47.8773 16.3526L 38.4666 11.353C 35.5556 9.8439 32.0393 9.5367 28.254 10.7386C 18.1759 13.9465 10 25.7572 10 38.2367C 10 50.7161 29.2147 64.054 29.2147 64.054L 37.746 70C 37.746 70 19.4921 56.6621 19.4921 44.1827C 19.4921 31.7033 27.6679 18.9889 37.746 15.7809C 41.4937 14.588 44.9783 14.8771 47.8773 16.3526Z"></path></g></g></g><g id="g-root-4.g-4_fr_zpp2pw3dmdqj-stroke" data-item-order="-518874" transform="translate(635, 471)"><g id="4.g-4_fr_zpp2pw3dmdqj-stroke" fill="none" stroke-linecap="round" stroke-linejoin="round" stroke-miterlimit="4" stroke="#ffffff" stroke-width="2"><g><path d="M 48.198944 35.346675C 48.198944 41.834975 43.952544 48.449675 38.706944 50.112375C 33.461244 51.775075 29.214844 47.871275 29.214844 41.383075C 29.214844 34.894875 33.461244 28.280175 38.706944 26.617475C 43.952544 24.954775 48.198944 28.858475 48.198944 35.346675Z"></path></g></g><g id="4.g-4_fr_zpp2pw3dmdqj-stroke" fill="none" stroke-linecap="round" stroke-linejoin="round" stroke-miterlimit="4" stroke="#ffffff" stroke-width="2"><g><path d="M 37.746188 69.998863C 37.746188 69.998863 56.000088 49.856463 56.000088 32.560563C 56.000088 20.081163 47.824288 12.571763 37.746188 15.779763C 27.668088 18.987763 19.492188 31.702063 19.492188 44.181462C 19.492188 56.660963 37.746188 69.998863 37.746188 69.998863ZM 38.706888 50.109463C 43.952488 48.446763 48.198988 41.831963 48.198988 35.343763C 48.198988 28.855562 43.952488 24.951763 38.706888 26.614562C 33.461288 28.277263 29.214788 34.891963 29.214788 41.380163C 29.214788 47.868363 33.461288 51.772163 38.706888 50.109463Z"></path></g></g><g id="4.g-4_fr_zpp2pw3dmdqj-stroke" fill="none" stroke-linecap="round" stroke-linejoin="round" stroke-miterlimit="4" stroke="#ffffff" stroke-width="2"><g><path d="M 47.8773 16.3526L 38.4666 11.353C 35.5556 9.8439 32.0393 9.5367 28.254 10.7386C 18.1759 13.9465 10 25.7572 10 38.2367C 10 50.7161 29.2147 64.054 29.2147 64.054L 37.746 70C 37.746 70 19.4921 56.6621 19.4921 44.1827C 19.4921 31.7033 27.6679 18.9889 37.746 15.7809C 41.4937 14.588 44.9783 14.8771 47.8773 16.3526Z"></path></g></g></g><g id="g-root-tx__v9vklg3dmeiv-stroke" data-item-order="0" transform="translate(339, 63)"></g><g id="g-root-tx__dj816s3dmdq8-stroke" data-item-order="0" transform="translate(219, 135)"></g><g id="g-root-tx__zrkhz83dmcqy-stroke" data-item-order="0" transform="translate(411, 135)"></g><g id="g-root-tx__1uuxhxg3dme4s-stroke" data-item-order="0" transform="translate(603, 135)"></g><g id="g-root-tx__1qdv1ms3dmcqx-stroke" data-item-order="0" transform="translate(219, 171)"></g><g id="g-root-tx__i0ahhg3dmf43-stroke" data-item-order="0" transform="translate(411, 171)"></g><g id="g-root-tx__1cuad503dnrwl-stroke" data-item-order="0" transform="translate(603, 171)"></g><g id="g-root-tx__qntblw3dnr4e-stroke" data-item-order="0" transform="translate(219, 273)"></g><g id="g-root-tx__dcct8k3dnspb-stroke" data-item-order="0" transform="translate(219, 309)"></g></g></g></svg>