<?xml version="1.0" encoding="utf-8" standalone="yes"?>
<!DOCTYPE svg PUBLIC "-//W3C//DTD SVG 1.1//EN" "http://www.w3.org/Graphics/SVG/1.1/DTD/svg11.dtd">
<svg width="578" height="536" viewBox="0 0 578 536" style="fill:none;stroke:none;fill-rule:evenodd;clip-rule:evenodd;stroke-linecap:round;stroke-linejoin:round;stroke-miterlimit:1.5;" version="1.1" xmlns="http://www.w3.org/2000/svg" xmlns:xlink="http://www.w3.org/1999/xlink"><style class="text-font-style fontImports" data-font-family="Roboto">@import url('https://fonts.googleapis.com/css2?family=Roboto:wght@400;700&amp;display=block');</style><g id="items" style="isolation: isolate"><g id="blend" style="mix-blend-mode: normal"><g id="g-root-ro_qst13g1o8swec-fill" data-item-order="-12096" transform="translate(207, 198)"><g id="ro_qst13g1o8swec-fill" stroke="none" fill="#f5f5f5"><g><path d="M 34 10L 82 10C 82 10 106 10 106 34L 106 112C 106 112 106 136 82 136L 34 136C 34 136 10 136 10 112L 10 34C 10 34 10 10 34 10"></path></g></g></g><g id="g-root-ro_v4vrv01o8x2bx-fill" data-item-order="-10368" transform="translate(159, 423)"><g id="ro_v4vrv01o8x2bx-fill" stroke="none" fill="#ffeceb"><g><path d="M 22 10L 190 10C 190 10 202 10 202 22L 202 52C 202 52 202 64 190 64L 22 64C 22 64 10 64 10 52L 10 22C 10 22 10 10 22 10"></path></g></g></g><g id="g-root-ro_1hbcte41o8uaru-fill" data-item-order="-10368" transform="translate(351, 141)"><g id="ro_1hbcte41o8uaru-fill" stroke="none" fill="#edf4ff"><g><path d="M 22 10L 190 10C 190 10 202 10 202 22L 202 52C 202 52 202 64 190 64L 22 64C 22 64 10 64 10 52L 10 22C 10 22 10 10 22 10"></path></g></g></g><g id="g-root-ro_94ne181o8yia4-fill" data-item-order="-7776" transform="translate(351, 327)"><g id="ro_94ne181o8yia4-fill" stroke="none" fill="#e3fff2"><g><path d="M 22 10L 142 10C 142 10 154 10 154 22L 154 52C 154 52 154 64 142 64L 22 64C 22 64 10 64 10 52L 10 22C 10 22 10 10 22 10"></path></g></g></g><g id="g-root-ro_4hyr4c1o91c02-fill" data-item-order="-7776" transform="translate(15, 123)"><g id="ro_4hyr4c1o91c02-fill" stroke="none" fill="#f4ffdc"><g><path d="M 22 10L 142 10C 142 10 154 10 154 22L 154 52C 154 52 154 64 142 64L 22 64C 22 64 10 64 10 52L 10 22C 10 22 10 10 22 10"></path></g></g></g><g id="g-root-ro_zk2swc1o95hqj-fill" data-item-order="-7776" transform="translate(15, 345)"><g id="ro_zk2swc1o95hqj-fill" stroke="none" fill="#ffebf7"><g><path d="M 22 10L 142 10C 142 10 154 10 154 22L 154 52C 154 52 154 64 142 64L 22 64C 22 64 10 64 10 52L 10 22C 10 22 10 10 22 10"></path></g></g></g><g id="g-root-cu_ddlrd81o95hqm-fill" data-item-order="0" transform="translate(117, 177)"></g><g id="g-root-cu_qofsng1o95jb9-fill" data-item-order="0" transform="translate(303, 168)"></g><g id="g-root-tx__qp29qk1o8x346-fill" data-item-order="0" transform="translate(63, 189)"><g id="tx__qp29qk1o8x346-fill" stroke="none" fill="#484848"><g><text style="font: 20px Roboto, sans-serif; white-space: pre;" font-size="20px" font-family="Roboto, sans-serif"><tspan x="15.59" y="34" dominant-baseline="ideographic">강점</tspan></text></g></g></g><g id="g-root-cu_m8maj01o95k3n-fill" data-item-order="0" transform="translate(117, 177)"></g><g id="g-root-cu_8xs98s1o95iiw-fill" data-item-order="0" transform="translate(117, 177)"></g><g id="g-root-cu_8xs98s1o95iiy-fill" data-item-order="0" transform="translate(117, 177)"></g><g id="g-root-cu_8xs98s1o95ij0-fill" data-item-order="0" transform="translate(375, 195)"></g><g id="g-root-cu_4hyr4c1o95jbb-fill" data-item-order="0" transform="translate(375, 195)"></g><g id="g-root-cu_4hyr4c1o95jbd-fill" data-item-order="0" transform="translate(375, 195)"></g><g id="g-root-tx__8yeqbw1o8x2bm-fill" data-item-order="0" transform="translate(399, 207)"><g id="tx__8yeqbw1o8x2bm-fill" stroke="none" fill="#484848"><g><text style="font: 20px Roboto, sans-serif; white-space: pre;" font-size="20px" font-family="Roboto, sans-serif"><tspan x="15.59" y="34" dominant-baseline="ideographic">인력</tspan></text></g></g></g><g id="g-root-tx__htf9ho1o8x3wv-fill" data-item-order="0" transform="translate(63, 225)"><g id="tx__htf9ho1o8x3wv-fill" stroke="none" fill="#484848"><g><text style="font: 20px Roboto, sans-serif; white-space: pre;" font-size="20px" font-family="Roboto, sans-serif"><tspan x="15.59" y="34" dominant-baseline="ideographic">약점</tspan></text></g></g></g><g id="g-root-cu_m8maj01o95jbj-fill" data-item-order="0" transform="translate(159, 150)"></g><g id="g-root-tx__ddlrd81o8x4p4-fill" data-item-order="0" transform="translate(63, 261)"><g id="tx__ddlrd81o8x4p4-fill" stroke="none" fill="#484848"><g><text style="font: 20px Roboto, sans-serif; white-space: pre;" font-size="20px" font-family="Roboto, sans-serif"><tspan x="15.59" y="34" dominant-baseline="ideographic">기회</tspan></text></g></g></g><g id="g-root-tx__2rq301o8x34b-fill" data-item-order="0" transform="translate(399, 243)"><g id="tx__2rq301o8x34b-fill" stroke="none" fill="#484848"><g><text style="font: 20px Roboto, sans-serif; white-space: pre;" font-size="20px" font-family="Roboto, sans-serif"><tspan x="15.59" y="34" dominant-baseline="ideographic">자금</tspan></text></g></g></g><g id="g-root-cu_qofsng1o95jb6-fill" data-item-order="0" transform="translate(159, 282)"></g><g id="g-root-cu_v49arw1o95iis-fill" data-item-order="0" transform="translate(303, 282)"></g><g id="g-root-tx__8yeqbw1o8x2bl-fill" data-item-order="0" transform="translate(63, 297)"><g id="tx__8yeqbw1o8x2bl-fill" stroke="none" fill="#484848"><g><text style="font: 20px Roboto, sans-serif; white-space: pre;" font-size="20px" font-family="Roboto, sans-serif"><tspan x="15.59" y="34" dominant-baseline="ideographic">위협</tspan></text></g></g></g><g id="g-root-tx__1uo29xo1o8x3pg-fill" data-item-order="0" transform="translate(399, 279)"><g id="tx__1uo29xo1o8x3pg-fill" stroke="none" fill="#484848"><g><text style="font: 20px Roboto, sans-serif; white-space: pre;" font-size="20px" font-family="Roboto, sans-serif"><tspan x="15.59" y="34" dominant-baseline="ideographic">기술</tspan></text></g></g></g><g id="g-root-cu_m8maj01o95k3k-fill" data-item-order="0" transform="translate(255, 324)"></g><g id="g-root-tx__258zw1o95k3n-fill" data-item-order="0" transform="translate(147, 39)"><g id="tx__258zw1o95k3n-fill" stroke="none" fill="#484848"><g><text style="font: 25px Roboto, sans-serif; white-space: pre;" font-size="25px" font-family="Roboto, sans-serif"><tspan x="17.7" y="43" dominant-baseline="ideographic">전략의 핵심 요소와 관계</tspan></text></g></g></g><g id="g-root-tx__18jgki41o8sx6y-fill" data-item-order="1000000000" transform="translate(231, 276)"><g id="tx__18jgki41o8sx6y-fill" stroke="none" fill="#969696"><g><text style="font: 20px Roboto, sans-serif; white-space: pre;" font-size="20px" font-family="Roboto, sans-serif"><tspan x="15.59" y="34" dominant-baseline="ideographic">전략</tspan></text></g></g></g><g id="g-root-tx__18fpt581o8x3wr-fill" data-item-order="1000000000" transform="translate(207, 438)"><g id="tx__18fpt581o8x3wr-fill" stroke="none" fill="#e55753"><g><text style="font: 20px Roboto, sans-serif; white-space: pre;" font-size="20px" font-family="Roboto, sans-serif"><tspan x="15.84" y="34" dominant-baseline="ideographic">실행 및 피드백</tspan></text></g></g></g><g id="g-root-tx__1lqjufg1o95iip-fill" data-item-order="1000000000" transform="translate(27, 360)"><g id="tx__1lqjufg1o95iip-fill" stroke="none" fill="#de58a9"><g><text style="font: 20px Roboto, sans-serif; white-space: pre;" font-size="20px" font-family="Roboto, sans-serif"><tspan x="12.72" y="34" dominant-baseline="ideographic">경쟁 전략</tspan></text></g></g></g><g id="g-root-path_18f3c241o95k3m-fill" data-item-order="1000000000" transform="translate(117, 357)"></g><g id="g-root-stra_v8mj7w1o8svm3-fill" data-item-order="1000000000" transform="translate(231, 222)"></g><g id="g-root-tx__zqxxos1o8yia2-fill" data-item-order="1000000000" transform="translate(399, 342)"><g id="tx__zqxxos1o8yia2-fill" stroke="none" fill="#3cc583"><g><text style="font: 20px Roboto, sans-serif; white-space: pre;" font-size="20px" font-family="Roboto, sans-serif"><tspan x="12.72" y="34" dominant-baseline="ideographic">목표 설정</tspan></text></g></g></g><g id="g-root-tx__1umtbrg1o8u96w-fill" data-item-order="1000000000" transform="translate(399, 156)"><g id="tx__1umtbrg1o8u96w-fill" stroke="none" fill="#4e88e7"><g><text style="font: 20px Roboto, sans-serif; white-space: pre;" font-size="20px" font-family="Roboto, sans-serif"><tspan x="15.84" y="34" dominant-baseline="ideographic">자원 활용 계획</tspan></text></g></g></g><g id="g-root-plan_1q6ztn01o8u9z5-fill" data-item-order="1000000000" transform="translate(363, 153)"></g><g id="g-root-miss_13zwb0s1o8x4p0-fill" data-item-order="1000000000" transform="translate(171, 435)"></g><g id="g-root-tree_8xs98s1o91b7t-fill" data-item-order="1000000000" transform="translate(117, 135)"></g><g id="g-root-tx__m98rm41o919mw-fill" data-item-order="1000000000" transform="translate(27, 138)"><g id="tx__m98rm41o919mw-fill" stroke="none" fill="#92bd39"><g><text style="font: 20px Roboto, sans-serif; white-space: pre;" font-size="20px" font-family="Roboto, sans-serif"><tspan x="12.72" y="34" dominant-baseline="ideographic">환경 분석</tspan></text></g></g></g><g id="g-root-targ_mg3wek1o8ygp7-fill" data-item-order="1000000000" transform="translate(363, 339)"></g><g id="g-root-ro_qst13g1o8swec-stroke" data-item-order="-12096" transform="translate(207, 198)"><g id="ro_qst13g1o8swec-stroke" fill="none" stroke-linecap="round" stroke-linejoin="round" stroke-miterlimit="4" stroke="#484848" stroke-width="2"><g><path d="M 34 10L 82 10C 82 10 106 10 106 34L 106 112C 106 112 106 136 82 136L 34 136C 34 136 10 136 10 112L 10 34C 10 34 10 10 34 10"></path></g></g></g><g id="g-root-ro_v4vrv01o8x2bx-stroke" data-item-order="-10368" transform="translate(159, 423)"><g id="ro_v4vrv01o8x2bx-stroke" fill="none" stroke-linecap="round" stroke-linejoin="round" stroke-miterlimit="4" stroke="#e55753" stroke-width="2"><g><path d="M 22 10L 190 10C 190 10 202 10 202 22L 202 52C 202 52 202 64 190 64L 22 64C 22 64 10 64 10 52L 10 22C 10 22 10 10 22 10"></path></g></g></g><g id="g-root-ro_1hbcte41o8uaru-stroke" data-item-order="-10368" transform="translate(351, 141)"><g id="ro_1hbcte41o8uaru-stroke" fill="none" stroke-linecap="round" stroke-linejoin="round" stroke-miterlimit="4" stroke="#4e88e7" stroke-width="2"><g><path d="M 22 10L 190 10C 190 10 202 10 202 22L 202 52C 202 52 202 64 190 64L 22 64C 22 64 10 64 10 52L 10 22C 10 22 10 10 22 10"></path></g></g></g><g id="g-root-ro_94ne181o8yia4-stroke" data-item-order="-7776" transform="translate(351, 327)"><g id="ro_94ne181o8yia4-stroke" fill="none" stroke-linecap="round" stroke-linejoin="round" stroke-miterlimit="4" stroke="#3cc583" stroke-width="2"><g><path d="M 22 10L 142 10C 142 10 154 10 154 22L 154 52C 154 52 154 64 142 64L 22 64C 22 64 10 64 10 52L 10 22C 10 22 10 10 22 10"></path></g></g></g><g id="g-root-ro_4hyr4c1o91c02-stroke" data-item-order="-7776" transform="translate(15, 123)"><g id="ro_4hyr4c1o91c02-stroke" fill="none" stroke-linecap="round" stroke-linejoin="round" stroke-miterlimit="4" stroke="#92bd39" stroke-width="2"><g><path d="M 22 10L 142 10C 142 10 154 10 154 22L 154 52C 154 52 154 64 142 64L 22 64C 22 64 10 64 10 52L 10 22C 10 22 10 10 22 10"></path></g></g></g><g id="g-root-ro_zk2swc1o95hqj-stroke" data-item-order="-7776" transform="translate(15, 345)"><g id="ro_zk2swc1o95hqj-stroke" fill="none" stroke-linecap="round" stroke-linejoin="round" stroke-miterlimit="4" stroke="#de58a9" stroke-width="2"><g><path d="M 22 10L 142 10C 142 10 154 10 154 22L 154 52C 154 52 154 64 142 64L 22 64C 22 64 10 64 10 52L 10 22C 10 22 10 10 22 10"></path></g></g></g><g id="g-root-cu_ddlrd81o95hqm-stroke" data-item-order="0" transform="translate(117, 177)"><g id="cu_ddlrd81o95hqm-stroke" fill="none" stroke-linecap="round" stroke-linejoin="round" stroke-miterlimit="4" stroke="#969696" stroke-width="2" stroke-dasharray="5.0, 7.0"><g><path d="M 28 10L 28 40L 28 70L 19 70L 10 70"></path></g></g></g><g id="g-root-cu_qofsng1o95jb9-stroke" data-item-order="0" transform="translate(303, 168)"><g id="cu_qofsng1o95jb9-stroke" fill="none" stroke-linecap="round" stroke-linejoin="round" stroke-miterlimit="4" stroke="#969696" stroke-width="2" stroke-dasharray="5.0, 7.0"><g><path d="M 10 82L 13 82L 13.1 82C 24.642751 82 34 72.642752 34 61.1L 34 61L 34 30.9C 33.999999 19.357249 43.357248 10.000001 54.899999 10.000002L 55 10L 58 10"></path></g></g></g><g id="g-root-tx__qp29qk1o8x346-stroke" data-item-order="0" transform="translate(63, 189)"></g><g id="g-root-cu_m8maj01o95k3n-stroke" data-item-order="0" transform="translate(117, 177)"><g id="cu_m8maj01o95k3n-stroke" fill="none" stroke-linecap="round" stroke-linejoin="round" stroke-miterlimit="4" stroke="#969696" stroke-width="2" stroke-dasharray="5.0, 7.0"><g><path d="M 28 10L 28 22L 28 34L 19 34L 10 34"></path></g></g></g><g id="g-root-cu_8xs98s1o95iiw-stroke" data-item-order="0" transform="translate(117, 177)"><g id="cu_8xs98s1o95iiw-stroke" fill="none" stroke-linecap="round" stroke-linejoin="round" stroke-miterlimit="4" stroke="#969696" stroke-width="2" stroke-dasharray="5.0, 7.0"><g><path d="M 28 10L 28 58L 28 106L 19 106L 10 106"></path></g></g></g><g id="g-root-cu_8xs98s1o95iiy-stroke" data-item-order="0" transform="translate(117, 177)"><g id="cu_8xs98s1o95iiy-stroke" fill="none" stroke-linecap="round" stroke-linejoin="round" stroke-miterlimit="4" stroke="#969696" stroke-width="2" stroke-dasharray="5.0, 7.0"><g><path d="M 28 10L 28 26.5L 28 130C 28.000005 136.627421 22.627422 142.000005 16.000005 142.000005L 15.9 142L 10 142"></path></g></g></g><g id="g-root-cu_8xs98s1o95ij0-stroke" data-item-order="0" transform="translate(375, 195)"><g id="cu_8xs98s1o95ij0-stroke" fill="none" stroke-linecap="round" stroke-linejoin="round" stroke-miterlimit="4" stroke="#969696" stroke-width="2" stroke-dasharray="5.0, 7.0"><g><path d="M 10 10L 10 22L 10 34L 19 34L 28 34"></path></g></g></g><g id="g-root-cu_4hyr4c1o95jbb-stroke" data-item-order="0" transform="translate(375, 195)"><g id="cu_4hyr4c1o95jbb-stroke" fill="none" stroke-linecap="round" stroke-linejoin="round" stroke-miterlimit="4" stroke="#969696" stroke-width="2" stroke-dasharray="5.0, 7.0"><g><path d="M 10 10L 10 40L 10 70L 19 70L 28 70"></path></g></g></g><g id="g-root-cu_4hyr4c1o95jbd-stroke" data-item-order="0" transform="translate(375, 195)"><g id="cu_4hyr4c1o95jbd-stroke" fill="none" stroke-linecap="round" stroke-linejoin="round" stroke-miterlimit="4" stroke="#969696" stroke-width="2" stroke-dasharray="5.0, 7.0"><g><path d="M 10 10L 10 22L 10 94C 10.000004 100.627423 15.372587 106.000006 22.000005 106.000005L 22.1 106L 28 106"></path></g></g></g><g id="g-root-tx__8yeqbw1o8x2bm-stroke" data-item-order="0" transform="translate(399, 207)"></g><g id="g-root-tx__htf9ho1o8x3wv-stroke" data-item-order="0" transform="translate(63, 225)"></g><g id="g-root-cu_m8maj01o95jbj-stroke" data-item-order="0" transform="translate(159, 150)"><g id="cu_m8maj01o95jbj-stroke" fill="none" stroke-linecap="round" stroke-linejoin="round" stroke-miterlimit="4" stroke="#969696" stroke-width="2" stroke-dasharray="5.0, 7.0"><g><path d="M 58 100L 55 100L 54.9 100C 43.357252 100 34.000003 90.642751 34.000003 79.1L 34 79L 34 30.9C 33.999998 19.357248 24.64275 10 13.1 10L 13 10L 10 10"></path></g></g></g><g id="g-root-tx__ddlrd81o8x4p4-stroke" data-item-order="0" transform="translate(63, 261)"></g><g id="g-root-tx__2rq301o8x34b-stroke" data-item-order="0" transform="translate(399, 243)"></g><g id="g-root-cu_qofsng1o95jb6-stroke" data-item-order="0" transform="translate(159, 282)"><g id="cu_qofsng1o95jb6-stroke" fill="none" stroke-linecap="round" stroke-linejoin="round" stroke-miterlimit="4" stroke="#969696" stroke-width="2" stroke-dasharray="5.0, 7.0"><g><path d="M 58 10L 55 10L 54.9 10C 43.357248 10.000001 33.999999 19.357249 33.999999 30.9L 34 31L 34 79.1C 33.999999 90.642754 24.642749 100.000003 13.099997 100.000002L 13 100L 10 100"></path></g></g></g><g id="g-root-cu_v49arw1o95iis-stroke" data-item-order="0" transform="translate(303, 282)"><g id="cu_v49arw1o95iis-stroke" fill="none" stroke-linecap="round" stroke-linejoin="round" stroke-miterlimit="4" stroke="#969696" stroke-width="2" stroke-dasharray="5.0, 7.0"><g><path d="M 10 10L 13 10L 13.1 10C 24.64275 10 33.999998 19.357248 33.999998 30.899998L 34 31L 34 61.1C 33.999999 72.642746 43.357246 81.999994 54.899997 81.999994L 55 82L 58 82"></path></g></g></g><g id="g-root-tx__8yeqbw1o8x2bl-stroke" data-item-order="0" transform="translate(63, 297)"></g><g id="g-root-tx__1uo29xo1o8x3pg-stroke" data-item-order="0" transform="translate(399, 279)"></g><g id="g-root-cu_m8maj01o95k3k-stroke" data-item-order="0" transform="translate(255, 324)"><g id="cu_m8maj01o95k3k-stroke" fill="none" stroke-linecap="round" stroke-linejoin="round" stroke-miterlimit="4" stroke="#969696" stroke-width="2" stroke-dasharray="5.0, 7.0"><g><path d="M 10 10L 10 59.5L 10 109"></path></g></g></g><g id="g-root-tx__258zw1o95k3n-stroke" data-item-order="0" transform="translate(147, 39)"></g><g id="g-root-tx__18jgki41o8sx6y-stroke" data-item-order="1000000000" transform="translate(231, 276)"></g><g id="g-root-tx__18fpt581o8x3wr-stroke" data-item-order="1000000000" transform="translate(207, 438)"></g><g id="g-root-tx__1lqjufg1o95iip-stroke" data-item-order="1000000000" transform="translate(27, 360)"></g><g id="g-root-path_18f3c241o95k3m-stroke" data-item-order="1000000000" transform="translate(117, 357)"><g id="path_18f3c241o95k3m-stroke" fill="none" stroke-linecap="round" stroke-linejoin="round" stroke-miterlimit="4" stroke="#de58a9" stroke-width="2"><g><path d="M 36.17625 13.47875C 37.141434 14.250635 37.880699 15.268422 38.31625 16.425001M 38.27375 21.383751C 37.818005 22.532976 37.060535 23.537897 36.081249 24.2925M 13.82375 37.771248C 12.858569 36.999367 12.119304 35.981579 11.68375 34.825001M 11.72625 29.866249C 12.181995 28.717022 12.939464 27.712101 13.91875 26.9575M 30 11.875L 31.875 11.875M 19.375 39.375L 21.25 39.375M 27.5 25.625L 31.25 25.625M 18.75 25.625L 22.5 25.625M 25 17.5L 25 39.375M 21.25 21.25L 25 17.5L 28.75 21.25M 23.125 12.5C 23.125 13.535534 23.964466 14.375 25 14.375C 26.035534 14.375 26.875 13.535534 26.875 12.5C 26.875 11.464466 26.035534 10.625 25 10.625C 23.964466 10.625 23.125 11.464466 23.125 12.5Z"></path></g></g></g><g id="g-root-stra_v8mj7w1o8svm3-stroke" data-item-order="1000000000" transform="translate(231, 222)"><g id="stra_v8mj7w1o8svm3-stroke" fill="none" stroke-linecap="round" stroke-linejoin="round" stroke-miterlimit="4" stroke="#969696" stroke-width="2"><g><path d="M 12 50C 12 53.313709 14.686292 56 18 56C 21.313709 56 24 53.313709 24 50C 24 46.686295 21.313709 44 18 44C 14.686292 44 12 46.686295 12 50M 28 44L 40 44L 40 56L 28 56ZM 50 44L 44 56L 56 56L 50 44ZM 37 34L 31 34M 40 23C 39.905952 19.726036 37.27396 17.094048 34 17C 30.726036 17.094048 28.094046 19.726036 27.999998 23C 28.044998 25.080042 29.185844 26.981453 31 28L 31 30L 37 30L 37 28C 38.814156 26.981453 39.955002 25.080042 40 23ZM 18 44L 18 39C 18 38.447716 18.447716 38 19 38L 49 38C 49.552284 38 50 38.447716 50 39L 50 44M 34 34L 34 44M 34 12L 34 14M 41.779999 15.219999L 40.360001 16.639999M 45 22L 43 22M 26.219999 15.219999L 27.639999 16.639999M 23 22L 25 22"></path></g></g></g><g id="g-root-tx__zqxxos1o8yia2-stroke" data-item-order="1000000000" transform="translate(399, 342)"></g><g id="g-root-tx__1umtbrg1o8u96w-stroke" data-item-order="1000000000" transform="translate(399, 156)"></g><g id="g-root-plan_1q6ztn01o8u9z5-stroke" data-item-order="1000000000" transform="translate(363, 153)"><g id="plan_1q6ztn01o8u9z5-stroke" fill="none" stroke-linecap="round" stroke-linejoin="round" stroke-miterlimit="4" stroke="#4e88e7" stroke-width="2"><g><path d="M 15.625 25.424999C 15.488561 25.547688 15.378057 25.696444 15.3 25.862501L 11.4 34.612499C 11.219258 35.019173 11.256904 35.489731 11.5 35.862499C 11.733435 36.181976 12.104341 36.372063 12.5 36.375L 37.5 36.375C 37.922581 36.377037 38.317581 36.165432 38.549999 35.8125C 38.793098 35.439732 38.830742 34.969173 38.649998 34.5625L 34.75 25.8125C 34.548641 25.364552 34.103626 25.076025 33.612499 25.075001L 25 25.075001M 14.8 27.625L 35.487499 27.625M 31.112499 14.4125C 31.777885 14.5536 32.324902 15.025167 32.5625 15.6625C 32.8652 16.546022 32.524391 17.521971 31.737499 18.025L 20.287498 25.175001C 20.052734 25.331051 19.747267 25.331051 19.512501 25.175001L 15.3125 22.212502C 15.222045 22.136497 15.169815 22.024395 15.169815 21.90625C 15.169815 21.788103 15.222045 21.676003 15.3125 21.6L 17.0875 20C 17.215128 19.926315 17.372372 19.926315 17.5 20L 19.674999 21.25L 22.5 19.3375L 17.1625 16.0625C 17.046429 15.970003 16.978817 15.829669 16.978817 15.68125C 16.978817 15.532831 17.046429 15.392496 17.1625 15.299999L 18.4125 14.3375C 18.545252 14.249482 18.710785 14.226491 18.862499 14.275L 26.25 17L 29.637501 14.6875C 30.068865 14.393087 30.604023 14.293312 31.112501 14.4125ZM 16.25 31.375L 18.125 31.375M 21.25 31.375L 23.125 31.375M 26.25 31.375L 28.125 31.375M 31.25 31.375L 33.125 31.375"></path></g></g></g><g id="g-root-miss_13zwb0s1o8x4p0-stroke" data-item-order="1000000000" transform="translate(171, 435)"><g id="miss_13zwb0s1o8x4p0-stroke" fill="none" stroke-linecap="round" stroke-linejoin="round" stroke-miterlimit="4" stroke="#e55753" stroke-width="2"><g><path d="M 21.875 24.375L 28.125 18.125M 28.487499 14.0125C 28.256571 14.245326 28.126381 14.559575 28.125 14.8875L 28.125 18.125L 31.362499 18.125C 31.690426 18.123619 32.004673 17.993431 32.237503 17.762501L 35.625 14.375L 31.875 14.375L 31.875 10.625ZM 21.875 30.625C 18.668636 30.624805 15.982525 28.198288 15.657562 25.008434C 15.3326 21.818581 17.474209 18.900244 20.614664 18.253473C 23.755119 17.606703 26.875591 19.441324 27.837502 22.5M 21.875 35.625C 17.41007 35.604042 13.380107 32.944569 11.605042 28.847597C 9.829975 24.750626 10.6458 19.99165 13.684088 16.719826C 16.722376 13.448001 21.408026 12.282632 25.625 13.75M 39.375 31.875C 39.375 36.017136 36.017136 39.375 31.875 39.375C 27.732866 39.375 24.375002 36.017136 24.375002 31.875C 24.375002 27.732864 27.732864 24.375 31.875 24.375C 36.017136 24.375 39.375 27.732864 39.375 31.875ZM 34.525002 29.225L 29.225 34.525002M 34.525002 34.525002L 29.225 29.225"></path></g></g></g><g id="g-root-tree_8xs98s1o91b7t-stroke" data-item-order="1000000000" transform="translate(117, 135)"><g id="tree_8xs98s1o91b7t-stroke" fill="none" stroke-linecap="round" stroke-linejoin="round" stroke-miterlimit="4" stroke="#92bd39" stroke-width="2"><g><path d="M 27.387501 24.7225C 27.69846 25.02404 28.149868 25.13051 28.562801 24.999704C 28.975737 24.868898 29.283512 24.521942 29.36414 24.096357C 29.444767 23.670771 29.285223 23.235281 28.94875 22.9625L 25 18.60125L 21.05875 22.97625C 20.575382 23.412184 20.536985 24.157444 20.972992 24.640745C 21.408998 25.124046 22.154264 25.162331 22.637499 24.72625L 19.3125 28.731249C 18.858479 29.197222 18.868219 29.943041 19.334257 30.396996C 19.800295 30.850948 20.546112 30.841103 21 30.375L 18.473749 33.602501C 18.136515 33.93882 18.035089 34.445175 18.216776 34.885433C 18.398462 35.325695 18.827475 35.613148 19.303749 35.61375L 30.69875 35.61375C 31.175261 35.611725 31.603786 35.323299 31.78504 34.882603C 31.966295 34.441906 31.864698 33.935444 31.5275 33.598751L 28.9575 30.393751C 29.419693 30.851458 30.165421 30.847818 30.623127 30.385626C 31.080833 29.923431 31.077194 29.177706 30.615002 28.719999ZM 26.875 35.616249L 26.875 39.366249M 23.125 35.616249L 23.125 39.366249M 17.235001 14.67625C 17.442423 14.863735 17.734541 14.925409 18.00005 14.837773C 18.265558 14.750137 18.463568 14.526688 18.518629 14.252565C 18.57369 13.978442 18.477324 13.695865 18.266251 13.5125L 15.625 10.63375L 12.96125 13.50875C 12.744228 13.691866 12.644293 13.978729 12.700562 14.257052C 12.756831 14.535377 12.960354 14.760888 13.231466 14.845318C 13.502579 14.929747 13.798156 14.859664 14.0025 14.662499L 11.90375 17.3225C 11.697576 17.518589 11.614982 17.81164 11.688413 18.086533C 11.761844 18.361429 11.979568 18.574255 12.256063 18.641413C 12.532557 18.70857 12.823651 18.619331 13.015 18.408751L 11.34875 20.533751C 11.126358 20.75596 11.05967 21.090233 11.17977 21.38077C 11.29987 21.671307 11.583118 21.860926 11.8975 21.86125L 19.35375 21.86125C 19.666582 21.858929 19.947552 21.669336 20.06679 21.380112C 20.186028 21.090885 20.120304 20.758364 19.9 20.536249L 18.275 18.421249C 18.58156 18.714455 19.066563 18.707815 19.364981 18.406326C 19.663399 18.104837 19.665077 17.619795 19.36875 17.31625ZM 15.625 21.866249L 15.625 23.758751M 35.985001 14.67625C 36.192421 14.863735 36.484539 14.925409 36.75005 14.837773C 37.015556 14.750137 37.213566 14.526688 37.268627 14.252565C 37.323689 13.978442 37.227322 13.695865 37.016251 13.5125L 34.375 10.63375L 31.71125 13.50875C 31.494226 13.691866 31.394291 13.978729 31.45056 14.257052C 31.506828 14.535377 31.710354 14.760888 31.981466 14.845318C 32.252579 14.929747 32.548157 14.859664 32.752499 14.662499L 30.653751 17.3225C 30.447577 17.518589 30.364981 17.81164 30.438412 18.086533C 30.511841 18.361429 30.729568 18.574255 31.006062 18.641413C 31.282557 18.70857 31.57365 18.619331 31.764999 18.408751L 30.098751 20.533751C 29.876358 20.75596 29.809669 21.090233 29.92977 21.38077C 30.04987 21.671307 30.333118 21.860926 30.647499 21.86125L 38.103748 21.86125C 38.418777 21.860931 38.702477 21.670546 38.822166 21.379137C 38.941849 21.087729 38.873863 20.752899 38.650002 20.53125L 37.025002 18.41625C 37.331558 18.709455 37.816559 18.702814 38.114979 18.401327C 38.413399 18.099838 38.415077 17.614794 38.118748 17.311251ZM 34.375 21.866249L 34.375 23.758751"></path></g></g></g><g id="g-root-tx__m98rm41o919mw-stroke" data-item-order="1000000000" transform="translate(27, 138)"></g><g id="g-root-targ_mg3wek1o8ygp7-stroke" data-item-order="1000000000" transform="translate(363, 339)"><g id="targ_mg3wek1o8ygp7-stroke" fill="none" stroke-linecap="round" stroke-linejoin="round" stroke-miterlimit="4" stroke="#3cc583" stroke-width="2"><g><path d="M 25 10.625L 25 15.028749M 10.625 25L 15.028749 25M 25 39.375L 25 34.971249M 39.375 25L 34.971249 25M 13.125 25C 13.125 31.558382 18.441618 36.875 25 36.875C 31.558382 36.875 36.875 31.558382 36.875 25C 36.875 18.441618 31.558382 13.125 25 13.125C 18.441618 13.125 13.125 18.441618 13.125 25M 31.5425 21.393749L 27.5 25.438749C 28.311628 27.509169 27.559826 29.865013 25.698931 31.082569C 23.838036 32.300125 21.378277 32.045559 19.80617 30.47271C 18.234062 28.899862 17.980652 26.439987 19.199083 24.579664C 20.417515 22.719341 22.773712 21.968647 24.84375 22.78125L 28.88625 18.737499L 31.572498 18.737499ZM 22.578751 27.151249C 22.578709 27.455036 22.824963 27.701324 23.12875 27.701324C 23.432537 27.701324 23.678791 27.455036 23.678749 27.151249C 23.678791 26.847464 23.432537 26.601173 23.12875 26.601173C 22.824963 26.601173 22.578709 26.847464 22.578751 27.151249"></path></g></g></g></g></g></svg>