<?xml version="1.0" encoding="utf-8" standalone="yes"?>
<!DOCTYPE svg PUBLIC "-//W3C//DTD SVG 1.1//EN" "http://www.w3.org/Graphics/SVG/1.1/DTD/svg11.dtd">
<svg width="914" height="518" viewBox="0 0 914 518" style="fill:none;stroke:none;fill-rule:evenodd;clip-rule:evenodd;stroke-linecap:round;stroke-linejoin:round;stroke-miterlimit:1.5;" version="1.1" xmlns="http://www.w3.org/2000/svg" xmlns:xlink="http://www.w3.org/1999/xlink"><style class="text-font-style fontImports" data-font-family="Roboto">@import url('https://fonts.googleapis.com/css2?family=Roboto:wght@400;700&amp;display=block');</style><rect id="" x="0" y="0" width="914" height="518" style="fill: #ffffff;"></rect><g id="items" style="isolation: isolate"><g id="blend" style="mix-blend-mode: normal"><g id="g-root-tf_1hbxz4klgl59-fill" data-item-order="-470592" transform="translate(-9, -9)"><g id="tf_1hbxz4klgl59-fill" stroke="none" fill="#ffffff"><g><path d="M 10 10L 922 10L 922 526L 10 526Z"></path></g></g></g><g id="g-root-0.g-0_fr_zjfz84b8kqx-fill" data-item-order="-362826" transform="translate(14.999969482421875, 315)"><g id="0.g-0_fr_zjfz84b8kqx-fill" stroke="none" fill="#f5f5f5"><g><path d="M 770.431031 35.076C 718.491031 43.6195 666.702031 47.6605 616.597031 48.4262C 612.914031 53.567 610.000031 58 610.000031 58C 610.000031 58 607.135031 53.6394 603.495031 48.5528C 548.271031 48.7772 495.284031 45.1057 446.626031 39.2117C 443.926031 43.07 442.000031 46 442.000031 46C 442.000031 46 439.640031 42.4092 436.484031 37.9435C 407.776031 34.2406 380.665031 29.7859 355.600031 24.9365C 328.459031 19.6856 303.307031 15.9057 279.858031 13.4621C 276.532031 18.1484 274.000031 22 274.000031 22C 274.000031 22 271.026031 17.4742 267.289031 12.2656C 206.377031 7.0277 157.208031 11.1192 114.366031 21.9861C 109.892731 28.0782 106.000031 34 106.000031 34C 106.000031 34 103.599931 30.3477 100.403131 25.829C 67.578831 35.5801 38.337031 49.3914 10.000031 65.9999L 10.000031 109.9212C 98.000031 50.4996 185.500031 48.5084 334.000031 76.2489C 366.619031 82.3423 403.938031 91.951 444.381031 102.3641C 537.448031 126.327 647.059031 154.549 754.000031 153.992C 794.741031 153.78 835.096031 149.656 874.000031 138.641L 874.000031 11.6386C 845.450031 20.0099 816.631031 26.7435 787.805031 32.0491C 782.762031 38.7557 778.000031 46 778.000031 46C 778.000031 46 774.560031 40.7651 770.431031 35.076Z"></path></g></g></g><g id="g-root-1.g-1_fr_v3mh3ob8lj7-fill" data-item-order="-362816" transform="translate(63, 219)"><g id="1.g-1_fr_v3mh3ob8lj7-fill" stroke="none" fill="#edf4ff"><g><path d="M 58 10C 84.5088 10 106 31.5256 106 58.0769C 106 79.2628 92.016 93.2821 76.5024 106C 70.5824 110.859 58 130 58 130C 58 130 45.4176 110.853 39.4976 106C 23.9776 93.2885 10 79.2692 10 58.0769C 10 31.5256 31.4912 10 58 10ZM 58 98C 80.0914 98 98 80.0914 98 58C 98 35.9086 80.0914 18 58 18C 35.9086 18 18 35.9086 18 58C 18 80.0914 35.9086 98 58 98Z"></path></g></g></g><g id="g-root-2.g-2_fr_v3mh3ob8lj9-fill" data-item-order="-362812" transform="translate(231, 207)"><g id="2.g-2_fr_v3mh3ob8lj9-fill" stroke="none" fill="#e3fff2"><g><path d="M 58 10C 84.5088 10 106 31.5256 106 58.0769C 106 79.2628 92.016 93.2821 76.5024 106C 70.5824 110.859 58 130 58 130C 58 130 45.4176 110.853 39.4976 106C 23.9776 93.2885 10 79.2692 10 58.0769C 10 31.5256 31.4912 10 58 10ZM 58 98C 80.0914 98 98 80.0914 98 58C 98 35.9086 80.0914 18 58 18C 35.9086 18 18 35.9086 18 58C 18 80.0914 35.9086 98 58 98Z"></path></g></g></g><g id="g-root-3.g-3_fr_m7zgusb8mbz-fill" data-item-order="-362808" transform="translate(399, 231)"><g id="3.g-3_fr_m7zgusb8mbz-fill" stroke="none" fill="#f4ffdc"><g><path d="M 58 10C 84.5088 10 106 31.5256 106 58.0769C 106 79.2628 92.016 93.2821 76.5024 106C 70.5824 110.859 58 130 58 130C 58 130 45.4176 110.853 39.4976 106C 23.9776 93.2885 10 79.2692 10 58.0769C 10 31.5256 31.4912 10 58 10ZM 58 98C 80.0914 98 98 80.0914 98 58C 98 35.9086 80.0914 18 58 18C 35.9086 18 18 35.9086 18 58C 18 80.0914 35.9086 98 58 98Z"></path></g></g></g><g id="g-root-4.g-4_fr_hssftgb8jyh-fill" data-item-order="-362804" transform="translate(567, 243)"><g id="4.g-4_fr_hssftgb8jyh-fill" stroke="none" fill="#e8f9ff"><g><path d="M 58 10C 84.5088 10 106 31.5256 106 58.0769C 106 79.2628 92.016 93.2821 76.5024 106C 70.5824 110.859 58 130 58 130C 58 130 45.4176 110.853 39.4976 106C 23.9776 93.2885 10 79.2692 10 58.0769C 10 31.5256 31.4912 10 58 10ZM 58 98C 80.0914 98 98 80.0914 98 58C 98 35.9086 80.0914 18 58 18C 35.9086 18 18 35.9086 18 58C 18 80.0914 35.9086 98 58 98Z"></path></g></g></g><g id="g-root-5.g-5_fr_hssftgb8jyj-fill" data-item-order="-362800" transform="translate(735, 231)"><g id="5.g-5_fr_hssftgb8jyj-fill" stroke="none" fill="#ffebf7"><g><path d="M 58 10C 84.5088 10 106 31.5256 106 58.0769C 106 79.2628 92.016 93.2821 76.5024 106C 70.5824 110.859 58 130 58 130C 58 130 45.4176 110.853 39.4976 106C 23.9776 93.2885 10 79.2692 10 58.0769C 10 31.5256 31.4912 10 58 10ZM 58 98C 80.0914 98 98 80.0914 98 58C 98 35.9086 80.0914 18 58 18C 35.9086 18 18 35.9086 18 58C 18 80.0914 35.9086 98 58 98Z"></path></g></g></g><g id="g-root-tx__mbqbdgb8kcu-fill" data-item-order="0" transform="translate(711, 99)"><g id="tx__mbqbdgb8kcu-fill" stroke="none" fill="#de58a9"><g><text style="font: bold 20px Roboto, sans-serif; white-space: pre;" font-weight="bold" font-size="20px" font-family="Roboto, sans-serif"><tspan x="42.71" y="34" dominant-baseline="ideographic">성과 평가</tspan></text></g></g></g><g id="g-root-tx__hu1dzob8m4p-fill" data-item-order="0" transform="translate(207, 135)"><g id="tx__hu1dzob8m4p-fill" stroke="none" fill="#484848"><g><text style="font: 15px Roboto, sans-serif; white-space: pre;" font-size="15px" font-family="Roboto, sans-serif"><tspan x="14.31" y="30.6" dominant-baseline="ideographic">조직의 비전과 미션에 </tspan><tspan x="14.31" y="48.6" dominant-baseline="ideographic">부합하는 목표를 설정</tspan><tspan x="59.44" y="66.6" dominant-baseline="ideographic">합니다</tspan></text></g></g></g><g id="g-root-tx__1q8uwb8b8lxn-fill" data-item-order="0" transform="translate(375, 135)"><g id="tx__1q8uwb8b8lxn-fill" stroke="none" fill="#484848"><g><text style="font: 15px Roboto, sans-serif; white-space: pre;" font-size="15px" font-family="Roboto, sans-serif"><tspan x="14.32" y="30.6" dominant-baseline="ideographic">목표 달성을 위한 다양</tspan><tspan x="14.32" y="48.6" dominant-baseline="ideographic">한 전략 옵션을 개발하</tspan><tspan x="38.74" y="66.6" dominant-baseline="ideographic">고 평가합니다</tspan></text></g></g></g><g id="g-root-tx__18i7cwkb8l51-fill" data-item-order="0" transform="translate(543, 135)"><g id="tx__18i7cwkb8l51-fill" stroke="none" fill="#484848"><g><text style="font: 15px Roboto, sans-serif; white-space: pre;" font-size="15px" font-family="Roboto, sans-serif"><tspan x="16.18" y="30.6" dominant-baseline="ideographic">선택한 전략을 실행하</tspan><tspan x="14.32" y="48.6" dominant-baseline="ideographic">기 위한 구체적인 계획</tspan><tspan x="38.74" y="66.6" dominant-baseline="ideographic">을 수립합니다</tspan></text></g></g></g><g id="g-root-tx__4l2rysb8jk7-fill" data-item-order="0" transform="translate(711, 135)"><g id="tx__4l2rysb8jk7-fill" stroke="none" fill="#484848"><g><text style="font: 15px Roboto, sans-serif; white-space: pre;" font-size="15px" font-family="Roboto, sans-serif"><tspan x="12.46" y="30.6" dominant-baseline="ideographic">전략 실행 후 성과를 평</tspan><tspan x="16.18" y="48.6" dominant-baseline="ideographic">가하고 필요시 수정합</tspan><tspan x="68.21" y="66.6" dominant-baseline="ideographic">니다</tspan></text></g></g></g><g id="g-root-tx__1cy0v10b8kcs-fill" data-item-order="0" transform="translate(543, 99)"><g id="tx__1cy0v10b8kcs-fill" stroke="none" fill="#1eabda"><g><text style="font: bold 20px Roboto, sans-serif; white-space: pre;" font-weight="bold" font-size="20px" font-family="Roboto, sans-serif"><tspan x="21.82" y="34" dominant-baseline="ideographic">실행 계획 수립</tspan></text></g></g></g><g id="g-root-tx__4j7cpgb8kju-fill" data-item-order="0" transform="translate(375, 99)"><g id="tx__4j7cpgb8kju-fill" stroke="none" fill="#92bd39"><g><text style="font: bold 20px Roboto, sans-serif; white-space: pre;" font-weight="bold" font-size="20px" font-family="Roboto, sans-serif"><tspan x="42.71" y="34" dominant-baseline="ideographic">전략 개발</tspan></text></g></g></g><g id="g-root-path_qst4b8bmlty-fill" data-item-order="0" transform="translate(87, 243)"></g><g id="g-root-goal_1lxf2fobcr9f-fill" data-item-order="0" transform="translate(255, 231)"></g><g id="g-root-tx__v5hwd0b8kjs-fill" data-item-order="0" transform="translate(207, 99)"><g id="tx__v5hwd0b8kjs-fill" stroke="none" fill="#3cc583"><g><text style="font: bold 20px Roboto, sans-serif; white-space: pre;" font-weight="bold" font-size="20px" font-family="Roboto, sans-serif"><tspan x="42.71" y="34" dominant-baseline="ideographic">목표 설정</tspan></text></g></g></g><g id="g-root-tx__1q7ly50b8jri-fill" data-item-order="0" transform="translate(39, 99)"><g id="tx__1q7ly50b8jri-fill" stroke="none" fill="#4e88e7"><g><text style="font: bold 20px Roboto, sans-serif; white-space: pre;" font-weight="bold" font-size="20px" font-family="Roboto, sans-serif"><tspan x="42.71" y="34" dominant-baseline="ideographic">환경 분석</tspan></text></g></g></g><g id="g-root-tx__dcyxp0b8kqt-fill" data-item-order="0" transform="translate(357, 39)"><g id="tx__dcyxp0b8kqt-fill" stroke="none" fill="#484848"><g><text style="font: bold 20px Roboto, sans-serif; white-space: pre;" font-weight="bold" font-size="20px" font-family="Roboto, sans-serif"><tspan x="12.23" y="34" dominant-baseline="ideographic">전략적 계획 프로세스</tspan></text></g></g></g><g id="g-root-stra_4pgd1wbju2q-fill" data-item-order="0" transform="translate(423, 255)"></g><g id="g-root-plan_1cws6c4bcsug-fill" data-item-order="0" transform="translate(591, 267)"></g><g id="g-root-f_1qaqbkkb8ky0-fill" data-item-order="0" transform="translate(759, 255)"></g><g id="g-root-tx_swot_18gbxn8b8m4n-fill" data-item-order="0" transform="translate(39, 135)"><g id="tx_swot_18gbxn8b8m4n-fill" stroke="none" fill="#484848"><g><text style="font: 15px Roboto, sans-serif; white-space: pre;" font-size="15px" font-family="Roboto, sans-serif"><tspan x="16.38" y="30.6" dominant-baseline="ideographic">SWOT 분석을 수행하</tspan><tspan x="14.32" y="48.6" dominant-baseline="ideographic">여 기회와 위협을 식별</tspan><tspan x="61.31" y="66.6" dominant-baseline="ideographic">합니다</tspan></text></g></g></g><g id="g-root-tf_1hbxz4klgl59-stroke" data-item-order="-470592" transform="translate(-9, -9)"></g><g id="g-root-0.g-0_fr_zjfz84b8kqx-stroke" data-item-order="-362826" transform="translate(14.999969482421875, 315)"><g id="0.g-0_fr_zjfz84b8kqx-stroke" fill="none" stroke-linecap="round" stroke-linejoin="round" stroke-miterlimit="4" stroke="#969696" stroke-width="2"><g><path d="M 10 109.9211C 98 50.4996 185.5 48.5083 334 76.2489C 441.6818 96.3645 600.5872 154.7908 754 153.9919C 794.7415 153.7797 835.0956 149.6556 874 138.6413M 838.9792 79.049169L 812.6604 84.044969M 790.0814 87.289869L 763.4412 90.040269M 740.6868 91.570269L 713.9083 92.512669M 664.3159 92.132469L 691.113 92.657369M 614.7961 89.426469L 641.5397 91.150069M 565.4117 84.813269L 592.0837 87.521269M 516.2077 78.639869L 542.7722 82.150469M 467.1878 71.207769L 493.6329 75.359569M 418.3102 62.801869L 444.6657 67.440069M 369.507 53.742769L 395.8435 58.690469M 321.2437 44.678369L 347.1464 49.492169M 273.9383 37.696869L 299.613 41.147369M 226.3069 33.826469L 252.1495 35.482769M 204.4239 33.355469L 178.5227 34.054869M 156.6906 35.837169L 131.0671 39.500569M 109.6285 44.017369L 84.7263 51.104269M 64.144 58.586369L 40.4944 69.135569M 21.1493 79.397669L 10 86.019269M 874 69.986069L 861.1353 73.678269M 770.431031 35.076C 718.491331 43.6195 666.701931 47.6605 616.597231 48.4262M 603.495131 48.5528C 548.270931 48.7772 495.283531 45.1057 446.625531 39.2117M 436.484031 37.9435C 407.775631 34.2406 380.665431 29.7859 355.600031 24.9365C 328.459431 19.6856 303.307431 15.9057 279.858431 13.4621M 267.289431 12.2656C 206.377131 7.0277 157.208131 11.1192 114.366431 21.9861M 100.403131 25.829C 67.578831 35.5801 38.337031 49.3914 10.000031 65.9999M 874.000031 11.6386C 845.449631 20.0099 816.630731 26.7435 787.805431 32.0491"></path></g></g></g><g id="g-root-1.g-1_fr_v3mh3ob8lj7-stroke" data-item-order="-362816" transform="translate(63, 219)"><g id="1.g-1_fr_v3mh3ob8lj7-stroke" fill="none" stroke-linecap="round" stroke-linejoin="round" stroke-miterlimit="4" stroke="#4e88e7" stroke-width="2"><g><path d="M 58 10C 84.5088 10 106 31.5256 106 58.0769C 106 79.2628 92.016 93.2821 76.5024 106C 70.5824 110.859 58 130 58 130C 58 130 45.4176 110.8526 39.4976 106C 23.9776 93.2885 10 79.2692 10 58.0769C 10 31.5256 31.4912 10 58 10ZM 58 98C 80.0914 98 98 80.0914 98 58C 98 35.9086 80.0914 18 58 18C 35.9086 18 18 35.9086 18 58C 18 80.0914 35.9086 98 58 98Z"></path></g></g></g><g id="g-root-2.g-2_fr_v3mh3ob8lj9-stroke" data-item-order="-362812" transform="translate(231, 207)"><g id="2.g-2_fr_v3mh3ob8lj9-stroke" fill="none" stroke-linecap="round" stroke-linejoin="round" stroke-miterlimit="4" stroke="#3cc583" stroke-width="2"><g><path d="M 58 10C 84.5088 10 106 31.5256 106 58.0769C 106 79.2628 92.016 93.2821 76.5024 106C 70.5824 110.859 58 130 58 130C 58 130 45.4176 110.8526 39.4976 106C 23.9776 93.2885 10 79.2692 10 58.0769C 10 31.5256 31.4912 10 58 10ZM 58 98C 80.0914 98 98 80.0914 98 58C 98 35.9086 80.0914 18 58 18C 35.9086 18 18 35.9086 18 58C 18 80.0914 35.9086 98 58 98Z"></path></g></g></g><g id="g-root-3.g-3_fr_m7zgusb8mbz-stroke" data-item-order="-362808" transform="translate(399, 231)"><g id="3.g-3_fr_m7zgusb8mbz-stroke" fill="none" stroke-linecap="round" stroke-linejoin="round" stroke-miterlimit="4" stroke="#92bd39" stroke-width="2"><g><path d="M 58 10C 84.5088 10 106 31.5256 106 58.0769C 106 79.2628 92.016 93.2821 76.5024 106C 70.5824 110.859 58 130 58 130C 58 130 45.4176 110.8526 39.4976 106C 23.9776 93.2885 10 79.2692 10 58.0769C 10 31.5256 31.4912 10 58 10ZM 58 98C 80.0914 98 98 80.0914 98 58C 98 35.9086 80.0914 18 58 18C 35.9086 18 18 35.9086 18 58C 18 80.0914 35.9086 98 58 98Z"></path></g></g></g><g id="g-root-4.g-4_fr_hssftgb8jyh-stroke" data-item-order="-362804" transform="translate(567, 243)"><g id="4.g-4_fr_hssftgb8jyh-stroke" fill="none" stroke-linecap="round" stroke-linejoin="round" stroke-miterlimit="4" stroke="#1eabda" stroke-width="2"><g><path d="M 58 10C 84.5088 10 106 31.5256 106 58.0769C 106 79.2628 92.016 93.2821 76.5024 106C 70.5824 110.859 58 130 58 130C 58 130 45.4176 110.8526 39.4976 106C 23.9776 93.2885 10 79.2692 10 58.0769C 10 31.5256 31.4912 10 58 10ZM 58 98C 80.0914 98 98 80.0914 98 58C 98 35.9086 80.0914 18 58 18C 35.9086 18 18 35.9086 18 58C 18 80.0914 35.9086 98 58 98Z"></path></g></g></g><g id="g-root-5.g-5_fr_hssftgb8jyj-stroke" data-item-order="-362800" transform="translate(735, 231)"><g id="5.g-5_fr_hssftgb8jyj-stroke" fill="none" stroke-linecap="round" stroke-linejoin="round" stroke-miterlimit="4" stroke="#de58a9" stroke-width="2"><g><path d="M 58 10C 84.5088 10 106 31.5256 106 58.0769C 106 79.2628 92.016 93.2821 76.5024 106C 70.5824 110.859 58 130 58 130C 58 130 45.4176 110.8526 39.4976 106C 23.9776 93.2885 10 79.2692 10 58.0769C 10 31.5256 31.4912 10 58 10ZM 58 98C 80.0914 98 98 80.0914 98 58C 98 35.9086 80.0914 18 58 18C 35.9086 18 18 35.9086 18 58C 18 80.0914 35.9086 98 58 98Z"></path></g></g></g><g id="g-root-tx__mbqbdgb8kcu-stroke" data-item-order="0" transform="translate(711, 99)"></g><g id="g-root-tx__hu1dzob8m4p-stroke" data-item-order="0" transform="translate(207, 135)"></g><g id="g-root-tx__1q8uwb8b8lxn-stroke" data-item-order="0" transform="translate(375, 135)"></g><g id="g-root-tx__18i7cwkb8l51-stroke" data-item-order="0" transform="translate(543, 135)"></g><g id="g-root-tx__4l2rysb8jk7-stroke" data-item-order="0" transform="translate(711, 135)"></g><g id="g-root-tx__1cy0v10b8kcs-stroke" data-item-order="0" transform="translate(543, 99)"></g><g id="g-root-tx__4j7cpgb8kju-stroke" data-item-order="0" transform="translate(375, 99)"></g><g id="g-root-path_qst4b8bmlty-stroke" data-item-order="0" transform="translate(87, 243)"><g id="path_qst4b8bmlty-stroke" fill="none" stroke-linecap="round" stroke-linejoin="round" stroke-miterlimit="4" stroke="#4e88e7" stroke-width="2"><g><path d="M 51.882 15.566C 53.426292 16.801016 54.609116 18.429474 55.306 20.280001M 55.237999 28.214001C 54.508808 30.052763 53.296856 31.660635 51.73 32.868M 16.118 54.433998C 14.573711 53.198986 13.390885 51.570526 12.694 49.720001M 12.762 41.785999C 13.491192 39.947235 14.703142 38.339363 16.27 37.132M 42 13L 45 13M 25 57L 28 57M 38 35L 44 35M 24 35L 30 35M 34 22L 34 57M 28 28L 34 22L 40 28M 31 14C 31 15.656855 32.343147 17 34 17C 35.656853 17 37 15.656855 37 14C 37 12.343145 35.656853 11 34 11C 32.343147 11 31 12.343145 31 14Z"></path></g></g></g><g id="g-root-goal_1lxf2fobcr9f-stroke" data-item-order="0" transform="translate(255, 231)"><g id="goal_1lxf2fobcr9f-stroke" fill="none" stroke-linecap="round" stroke-linejoin="round" stroke-miterlimit="4" stroke="#3cc583" stroke-width="2"><g><path d="M 39 53.18L 39 56M 49 57C 49 51.477154 44.522846 47 39 47C 33.477154 47 29 51.477154 29 57M 32 37C 32 40.865997 35.13401 44 39 44C 42.865993 44 46 40.865997 46 37C 46 33.13401 42.865993 30.000002 39 30.000002C 35.13401 30.000002 32 33.13401 32 37M 25.1 53.84C 23.107313 52.595531 20.68919 52.229122 18.41728 52.827393C 16.145369 53.425663 14.221328 54.935509 13.1 57M 15.38 40.98C 18.250408 43.91003 22.619005 44.790092 26.4 43.200001M 14.559999 44C 14.56 47.280575 17.219429 49.940002 20.5 49.940002C 23.780571 49.940002 26.440001 47.280575 26.440001 44C 26.440001 40.719429 23.780571 38.060001 20.5 38.060001C 17.219429 38.060001 14.56 40.719429 14.56 44M 55 57L 55 11M 55 11L 43 11C 41.895432 11 41 11.895431 41 13L 41 19C 41 20.104568 41.895432 21 43 21L 55 21M 41 15L 28 15L 33 20L 28 25L 43 25C 44.104568 25 45 24.104568 45 23L 45 21M 33.400002 32.799999C 35.477036 34.790741 38.223797 35.932251 41.099998 36C 42.693016 36.00816 44.275742 35.74437 45.780003 35.220001"></path></g></g></g><g id="g-root-tx__v5hwd0b8kjs-stroke" data-item-order="0" transform="translate(207, 99)"></g><g id="g-root-tx__1q7ly50b8jri-stroke" data-item-order="0" transform="translate(39, 99)"></g><g id="g-root-tx__dcyxp0b8kqt-stroke" data-item-order="0" transform="translate(357, 39)"></g><g id="g-root-stra_4pgd1wbju2q-stroke" data-item-order="0" transform="translate(423, 255)"><g id="stra_4pgd1wbju2q-stroke" fill="none" stroke-linecap="round" stroke-linejoin="round" stroke-miterlimit="4" stroke="#92bd39" stroke-width="2"><g><path d="M 12 50C 12 53.313709 14.686292 56 18 56C 21.313709 56 24 53.313709 24 50C 24 46.686295 21.313709 44 18 44C 14.686292 44 12 46.686295 12 50M 28 44L 40 44L 40 56L 28 56ZM 50 44L 44 56L 56 56L 50 44ZM 37 34L 31 34M 40 23C 39.905952 19.726036 37.27396 17.094048 34 17C 30.726036 17.094048 28.094046 19.726036 27.999998 23C 28.044998 25.080042 29.185844 26.981453 31 28L 31 30L 37 30L 37 28C 38.814156 26.981453 39.955002 25.080042 40 23ZM 18 44L 18 39C 18 38.447716 18.447716 38 19 38L 49 38C 49.552284 38 50 38.447716 50 39L 50 44M 34 34L 34 44M 34 12L 34 14M 41.779999 15.219999L 40.360001 16.639999M 45 22L 43 22M 26.219999 15.219999L 27.639999 16.639999M 23 22L 25 22"></path></g></g></g><g id="g-root-plan_1cws6c4bcsug-stroke" data-item-order="0" transform="translate(591, 267)"><g id="plan_1cws6c4bcsug-stroke" fill="none" stroke-linecap="round" stroke-linejoin="round" stroke-miterlimit="4" stroke="#1eabda" stroke-width="2"><g><path d="M 12.842 16.454L 32.134003 16.454C 32.134003 16.454 33.487999 16.454 33.487999 17.808001L 33.487999 29.6C 33.487999 29.6 33.487999 30.954 32.134003 30.954L 12.842 30.954C 12.842 30.954 11.488 30.954 11.488 29.6L 11.488 17.808001C 11.488 17.808001 11.488 16.454 12.842 16.454M 16.813999 16.454L 18.836 13.654C 19.489794 12.695973 20.616394 12.173759 21.77 12.294L 23.726 12.294C 24.880138 12.173891 26.007263 12.695993 26.662001 13.654L 28.684 16.454M 11.488 22.454L 20.035999 22.454M 24.987999 22.454L 33.535999 22.454M 21.035999 21.424L 23.938 21.424C 23.938 21.424 24.938 21.424 24.938 22.424L 24.938 24.986C 24.938 24.986 24.938 25.986 23.938 25.986L 21.035999 25.986C 21.035999 25.986 20.035999 25.986 20.035999 24.986L 20.035999 22.424C 20.035999 22.424 20.035999 21.424 21.035999 21.424M 35.818001 41.214001L 55.110001 41.214001C 55.110001 41.214001 56.464001 41.214001 56.464001 42.568001L 56.464001 54.360001C 56.464001 54.360001 56.464001 55.714001 55.110001 55.714001L 35.818001 55.714001C 35.818001 55.714001 34.464001 55.714001 34.464001 54.360001L 34.464001 42.568001C 34.464001 42.568001 34.464001 41.214001 35.818001 41.214001M 39.788002 41.214001L 41.809998 38.414001C 42.465809 37.457443 43.592411 36.936352 44.746002 37.056L 46.702 37.056C 47.855133 36.935776 48.981426 37.457077 49.636002 38.414001L 51.658001 41.214001M 34.464001 47.214001L 43.012001 47.214001M 47.964001 47.214001L 56.512001 47.214001M 44.012001 46.181999L 46.914001 46.181999C 46.914001 46.181999 47.914001 46.181999 47.914001 47.181999L 47.914001 49.743999C 47.914001 49.743999 47.914001 50.743999 46.914001 50.743999L 44.012001 50.743999C 44.012001 50.743999 43.012001 50.743999 43.012001 49.743999L 43.012001 47.181999C 43.012001 47.181999 43.012001 46.181999 44.012001 46.181999M 53.487999 26.6C 53.487999 21.905579 49.682419 18.1 44.987999 18.1L 40.987999 18.1M 44.987999 14.096001L 40.987999 18.096001L 44.987999 22.096001M 14.488 39.599998C 14.488 44.294422 18.293579 48.099998 22.987999 48.099998L 26.988001 48.099998M 22.987999 52.096001L 26.988001 48.096001L 22.987999 44.096001"></path></g></g></g><g id="g-root-f_1qaqbkkb8ky0-stroke" data-item-order="0" transform="translate(759, 255)"><g id="f_1qaqbkkb8ky0-stroke" fill="none" stroke-linecap="round" stroke-linejoin="round" stroke-miterlimit="4" stroke="#de58a9" stroke-width="2"><g><path d="M 15 45L 15 39M 27 45L 27 39M 15 45L 27 45M 21 57L 21 49M 21 28L 21 38M 26 57L 27 45L 31 45L 31 38C 31 32.477154 26.522848 28 21 28C 15.477153 28 11 32.477154 11 38L 11 45L 15 45L 16 57ZM 14 18C 14 21.865993 17.134007 25 21 25C 24.865993 25 28 21.865993 28 18C 28 14.134007 24.865993 11 21 11C 17.134007 11 14 14.134007 14 18ZM 14.8 14.756001C 17.020029 16.842838 19.953133 18.003202 23 18C 24.696709 18.002375 26.37451 17.64377 27.922001 16.948M 37 45L 53 45C 55.209141 45 57 43.209141 57 41L 57 15C 57 12.790861 55.209141 11 53 11L 30 11M 41 33L 41 23C 41 21.895432 41.895432 21 43 21L 47 21M 41 27L 45 27"></path></g></g></g><g id="g-root-tx_swot_18gbxn8b8m4n-stroke" data-item-order="0" transform="translate(39, 135)"></g></g></g></svg>