<?xml version="1.0" encoding="utf-8" standalone="yes"?>
<!DOCTYPE svg PUBLIC "-//W3C//DTD SVG 1.1//EN" "http://www.w3.org/Graphics/SVG/1.1/DTD/svg11.dtd">
<svg width="470" height="638" viewBox="0 0 470 638" style="fill:none;stroke:none;fill-rule:evenodd;clip-rule:evenodd;stroke-linecap:round;stroke-linejoin:round;stroke-miterlimit:1.5;" version="1.1" xmlns="http://www.w3.org/2000/svg" xmlns:xlink="http://www.w3.org/1999/xlink"><style class="text-font-style fontImports" data-font-family="Roboto">@import url('https://fonts.googleapis.com/css2?family=Roboto:wght@400;700&amp;display=block');</style><rect id="" x="0" y="0" width="470" height="638" style="fill: #ffffff;"></rect><g id="items" style="isolation: isolate"><g id="blend" style="mix-blend-mode: normal"><g id="g-root-tf_mbpyvr29bbie-fill" data-item-order="-297648" transform="translate(-9, -9)"><g id="tf_mbpyvr29bbie-fill" stroke="none" fill="#ffffff"><g><path d="M 10 10L 478 10L 478 646L 10 646Z"></path></g></g></g><g id="g-root-4.line_sy_vbqaqf299xji-fill" data-item-order="-115118" transform="translate(231, 483.921875)"></g><g id="g-root-4.line_1_sy_qvwslz299ybr-fill" data-item-order="-115114" transform="translate(255, 489.4609375)"></g><g id="g-root-4.line_2_sy_qvwslz299ybs-fill" data-item-order="-115110" transform="translate(327, 483.927734375)"></g><g id="g-root-4.line_3_sy_mg3ahj299z41-fill" data-item-order="-115106" transform="translate(303, 489.462890625)"></g><g id="g-root-4.line_4_sy_mg3ahj299z42-fill" data-item-order="-115102" transform="translate(279, 494.998046875)"></g><g id="g-root-4.cu_sy_dkga8n299zwr-fill" data-item-order="-115101" transform="translate(123, 417)"><g id="4.cu_sy_dkga8n299zwr-fill" stroke="none" fill="#e0cb15"><g><path d="M 10 52L 10 40L 140 10L 166 16L 192 10L 322 40L 322 52L 166 88L 10 52Z"></path></g></g></g><g id="g-root-3.line_sy_dkga8n299zws-fill" data-item-order="-115094" transform="translate(207, 406.3828125)"></g><g id="g-root-3.line_1_sy_95997b299xj9-fill" data-item-order="-115090" transform="translate(231, 411.921875)"></g><g id="g-root-3.line_2_sy_95997b299xja-fill" data-item-order="-115086" transform="translate(255, 417.4609375)"></g><g id="g-root-3.line_3_sy_95997b299xjb-fill" data-item-order="-115082" transform="translate(351, 406.392578125)"></g><g id="g-root-3.line_4_sy_4pfr2v299ybk-fill" data-item-order="-115078" transform="translate(327, 411.927734375)"></g><g id="g-root-3.line_5_sy_4pfr2v299ybl-fill" data-item-order="-115074" transform="translate(303, 417.462890625)"></g><g id="g-root-3.line_6_sy_1uuwst3299yx6-fill" data-item-order="-115070" transform="translate(279, 422.998046875)"></g><g id="g-root-3.cu_sy_1uuwst3299yx7-fill" data-item-order="-115069" transform="translate(123, 345)"><g id="3.cu_sy_1uuwst3299yx7-fill" stroke="none" fill="#92bd39"><g><path d="M 10 52L 10 40L 140 10L 166 16L 192 10L 322 40L 322 52L 166 88L 10 52Z"></path></g></g></g><g id="g-root-2.line_sy_1qf3aon299zpg-fill" data-item-order="-115062" transform="translate(183, 328.84375)"></g><g id="g-root-2.line_1_sy_1qf3aon299zph-fill" data-item-order="-115058" transform="translate(207, 334.3828125)"></g><g id="g-root-2.line_2_sy_1ha365329bbwu-fill" data-item-order="-115054" transform="translate(231, 339.921875)"></g><g id="g-root-2.line_3_sy_1ha365329bbwv-fill" data-item-order="-115050" transform="translate(255, 345.4609375)"></g><g id="g-root-2.line_4_sy_1cu9o0n29bcp4-fill" data-item-order="-115046" transform="translate(375, 328.857421875)"></g><g id="g-root-2.line_5_sy_1cu9o0n29bcp5-fill" data-item-order="-115042" transform="translate(351, 334.392578125)"></g><g id="g-root-2.line_6_sy_1cu9o0n29bcp6-fill" data-item-order="-115038" transform="translate(327, 339.927734375)"></g><g id="g-root-2.line_7_sy_18eg5w729bdhf-fill" data-item-order="-115034" transform="translate(303, 345.462890625)"></g><g id="g-root-2.line_8_sy_zit5nb29bea4-fill" data-item-order="-115030" transform="translate(279, 350.998046875)"></g><g id="g-root-2.cu_sy_v3m4lz29bbwl-fill" data-item-order="-115029" transform="translate(123, 273)"><g id="2.cu_sy_v3m4lz29bbwl-fill" stroke="none" fill="#3cc583"><g><path d="M 10 52L 10 40L 140 10L 166 16L 192 10L 322 40L 322 52L 166 88L 10 52Z"></path></g></g></g><g id="g-root-1.line_sy_m7z4d329bcpa-fill" data-item-order="-115022" transform="translate(159, 251.3046875)"></g><g id="g-root-1.line_1_sy_hs5m8n29bdhj-fill" data-item-order="-115018" transform="translate(183, 256.84375)"></g><g id="g-root-1.line_2_sy_hs5m8n29bdhk-fill" data-item-order="-115014" transform="translate(207, 262.3828125)"></g><g id="g-root-1.line_3_sy_dcc44729be9t-fill" data-item-order="-115010" transform="translate(231, 267.921875)"></g><g id="g-root-1.line_4_sy_dcc44729be9u-fill" data-item-order="-115006" transform="translate(255, 273.4609375)"></g><g id="g-root-1.line_5_sy_dcc44729be9v-fill" data-item-order="-115002" transform="translate(399, 251.322265625)"></g><g id="g-root-1.line_6_sy_4hbkyf29bbws-fill" data-item-order="-114998" transform="translate(375, 256.857177734375)"></g><g id="g-root-1.line_7_sy_4hbkyf29bbwt-fill" data-item-order="-114994" transform="translate(351, 262.392822265625)"></g><g id="g-root-1.line_8_sy_1i2tz29bcp2-fill" data-item-order="-114990" transform="translate(327, 267.927734375)"></g><g id="g-root-1.line_9_sy_1i2tz29bcp3-fill" data-item-order="-114986" transform="translate(303, 273.462890625)"></g><g id="g-root-1.line_10_sy_1i2tz29bcp4-fill" data-item-order="-114982" transform="translate(279, 278.998046875)"></g><g id="g-root-1.cu_sy_1umsmon29bda9-fill" data-item-order="-114981" transform="translate(123, 195)"><g id="1.cu_sy_1umsmon29bda9-fill" stroke="none" fill="#1eabda"><g><path d="M 10 58L 10 46L 166 10L 322 46L 322 58L 166 94L 10 58Z"></path></g></g></g><g id="g-root-0.line_sy_1lr5mfr29be2y-fill" data-item-order="-114974" transform="translate(135, 171.000244140625)"></g><g id="g-root-0.line_1_sy_1lr5mfr29be2z-fill" data-item-order="-114970" transform="translate(351, 183)"></g><g id="g-root-0.line_2_sy_1lr5mfr29be30-fill" data-item-order="-114966" transform="translate(303, 183)"></g><g id="g-root-0.line_3_sy_1hbylef29bbph-fill" data-item-order="-114962" transform="translate(207, 183)"></g><g id="g-root-0.line_4_sy_1hbylef29bbpi-fill" data-item-order="-114958" transform="translate(327, 171)"></g><g id="g-root-0.line_5_sy_18gbl5j29bci7-fill" data-item-order="-114954" transform="translate(159, 183)"></g><g id="g-root-0.line_6_sy_1cw539z29bchs-fill" data-item-order="-114950" transform="translate(423, 171)"></g><g id="g-root-0.line_7_sy_1cw539z29bcht-fill" data-item-order="-114946" transform="translate(375, 171)"></g><g id="g-root-0.line_8_sy_140i31329bdai-fill" data-item-order="-114942" transform="translate(183, 171)"></g><g id="g-root-0.line_9_sy_140i31329bdaj-fill" data-item-order="-114938" transform="translate(255, 183)"></g><g id="g-root-0.line_10_sy_140i31329bdak-fill" data-item-order="-114934" transform="translate(231, 171)"></g><g id="g-root-0.line_11_sy_zkokwn29be2t-fill" data-item-order="-114930" transform="translate(399, 183)"></g><g id="g-root-0.line_12_sy_zkokwn29be2u-fill" data-item-order="-114926" transform="translate(279, 171)"></g><g id="g-root-tx__8ye19329be2w-fill" data-item-order="0" transform="translate(15, 369)"><g id="tx__8ye19329be2w-fill" stroke="none" fill="#424736"><g><text style="font: 20px Roboto, sans-serif; white-space: pre;" font-size="20px" font-family="Roboto, sans-serif"><tspan x="13.44" y="34" dominant-baseline="ideographic">실행 계획</tspan></text></g></g></g><g id="g-root-tx__1cy0ijb29bbic-fill" data-item-order="0" transform="translate(207, 555)"><g id="tx__1cy0ijb29bbic-fill" stroke="none" fill="#484848"><g><text style="font: 20px Roboto, sans-serif; white-space: pre;" font-size="20px" font-family="Roboto, sans-serif"><tspan x="12.63" y="34" dominant-baseline="ideographic">지속 가능한 성장</tspan></text></g></g></g><g id="g-root-tx__1q8ujtj29bd36-fill" data-item-order="0" transform="translate(15, 225)"><g id="tx__1q8ujtj29bd36-fill" stroke="none" fill="#32444a"><g><text style="font: 20px Roboto, sans-serif; white-space: pre;" font-size="20px" font-family="Roboto, sans-serif"><tspan x="13.44" y="34" dominant-baseline="ideographic">목표 설정</tspan></text></g></g></g><g id="g-root-tx__m9ujmf29bchz-fill" data-item-order="0" transform="translate(15, 441)"><g id="tx__m9ujmf29bchz-fill" stroke="none" fill="#46432d"><g><text style="font: 20px Roboto, sans-serif; white-space: pre;" font-size="20px" font-family="Roboto, sans-serif"><tspan x="13.44" y="34" dominant-baseline="ideographic">성과 평가</tspan></text></g></g></g><g id="g-root-tx__142diaf29bcb1-fill" data-item-order="0" transform="translate(45, 39)"><g id="tx__142diaf29bcb1-fill" stroke="none" fill="#484848"><g><text style="font: bold 20px Roboto, sans-serif; white-space: pre;" font-weight="bold" font-size="20px" font-family="Roboto, sans-serif"><tspan x="12.54" y="34" dominant-baseline="ideographic">기업 전략 개발 프로세스</tspan></text></g></g></g><g id="g-root-tx__1hd7jkn29bdvv-fill" data-item-order="0" transform="translate(207, 135)"><g id="tx__1hd7jkn29bdvv-fill" stroke="none" fill="#484848"><g><text style="font: 20px Roboto, sans-serif; white-space: pre;" font-size="20px" font-family="Roboto, sans-serif"><tspan x="12.63" y="34" dominant-baseline="ideographic">전략적 환경 분석</tspan></text></g></g></g><g id="g-root-tx__1uoo1xz29bcax-fill" data-item-order="0" transform="translate(15, 297)"><g id="tx__1uoo1xz29bcax-fill" stroke="none" fill="#374840"><g><text style="font: 20px Roboto, sans-serif; white-space: pre;" font-size="20px" font-family="Roboto, sans-serif"><tspan x="13.44" y="34" dominant-baseline="ideographic">전략 개발</tspan></text></g></g></g><g id="g-root-tf_mbpyvr29bbie-stroke" data-item-order="-297648" transform="translate(-9, -9)"></g><g id="g-root-4.line_sy_vbqaqf299xji-stroke" data-item-order="-115118" transform="translate(231, 483.921875)"><g id="4.line_sy_vbqaqf299xji-stroke" fill="none" stroke-linecap="round" stroke-linejoin="round" stroke-miterlimit="4" stroke="#484848" stroke-width="2"><g><path d="M 10 9.998047L 10 52.998047"></path><path d="M 3.5 46.998047L 10 53.498047L 16.5 46.998047" stroke-dasharray="none"></path></g></g></g><g id="g-root-4.line_1_sy_qvwslz299ybr-stroke" data-item-order="-115114" transform="translate(255, 489.4609375)"><g id="4.line_1_sy_qvwslz299ybr-stroke" fill="none" stroke-linecap="round" stroke-linejoin="round" stroke-miterlimit="4" stroke="#484848" stroke-width="2"><g><path d="M 10 9.999023L 10 52.999023"></path><path d="M 3.5 46.999023L 10 53.499023L 16.5 46.999023" stroke-dasharray="none"></path></g></g></g><g id="g-root-4.line_2_sy_qvwslz299ybs-stroke" data-item-order="-115110" transform="translate(327, 483.927734375)"><g id="4.line_2_sy_qvwslz299ybs-stroke" fill="none" stroke-linecap="round" stroke-linejoin="round" stroke-miterlimit="4" stroke="#484848" stroke-width="2"><g><path d="M 10 10.002197L 10 53.002197"></path><path d="M 3.5 47.002197L 10 53.502197L 16.5 47.002197" stroke-dasharray="none"></path></g></g></g><g id="g-root-4.line_3_sy_mg3ahj299z41-stroke" data-item-order="-115106" transform="translate(303, 489.462890625)"><g id="4.line_3_sy_mg3ahj299z41-stroke" fill="none" stroke-linecap="round" stroke-linejoin="round" stroke-miterlimit="4" stroke="#484848" stroke-width="2"><g><path d="M 10 9.99707L 10 52.99707"></path><path d="M 3.5 46.99707L 10 53.49707L 16.5 46.99707" stroke-dasharray="none"></path></g></g></g><g id="g-root-4.line_4_sy_mg3ahj299z42-stroke" data-item-order="-115102" transform="translate(279, 494.998046875)"><g id="4.line_4_sy_mg3ahj299z42-stroke" fill="none" stroke-linecap="round" stroke-linejoin="round" stroke-miterlimit="4" stroke="#484848" stroke-width="2"><g><path d="M 10 10.001953L 10 53.001953"></path><path d="M 3.5 47.001953L 10 53.501953L 16.5 47.001953" stroke-dasharray="none"></path></g></g></g><g id="g-root-4.cu_sy_dkga8n299zwr-stroke" data-item-order="-115101" transform="translate(123, 417)"><g id="4.cu_sy_dkga8n299zwr-stroke" fill="none" stroke-linecap="round" stroke-linejoin="round" stroke-miterlimit="4" stroke="#ffffff" stroke-width="2"><g><path d="M 10 40L 10 52L 166 88L 322 52L 322 40M 10 40L 165.9714 76L 322 40M 10 40L 140 10L 166 16L 192 10L 322 40"></path></g></g></g><g id="g-root-3.line_sy_dkga8n299zws-stroke" data-item-order="-115094" transform="translate(207, 406.3828125)"><g id="3.line_sy_dkga8n299zws-stroke" fill="none" stroke-linecap="round" stroke-linejoin="round" stroke-miterlimit="4" stroke="#484848" stroke-width="2"><g><path d="M 10 9.99707L 10 52.99707"></path><path d="M 3.5 46.99707L 10 53.49707L 16.5 46.99707" stroke-dasharray="none"></path></g></g></g><g id="g-root-3.line_1_sy_95997b299xj9-stroke" data-item-order="-115090" transform="translate(231, 411.921875)"><g id="3.line_1_sy_95997b299xj9-stroke" fill="none" stroke-linecap="round" stroke-linejoin="round" stroke-miterlimit="4" stroke="#484848" stroke-width="2"><g><path d="M 10 9.998047L 10 52.998047"></path><path d="M 3.5 46.998047L 10 53.498047L 16.5 46.998047" stroke-dasharray="none"></path></g></g></g><g id="g-root-3.line_2_sy_95997b299xja-stroke" data-item-order="-115086" transform="translate(255, 417.4609375)"><g id="3.line_2_sy_95997b299xja-stroke" fill="none" stroke-linecap="round" stroke-linejoin="round" stroke-miterlimit="4" stroke="#484848" stroke-width="2"><g><path d="M 10 9.999023L 10 52.999023"></path><path d="M 3.5 46.999023L 10 53.499023L 16.5 46.999023" stroke-dasharray="none"></path></g></g></g><g id="g-root-3.line_3_sy_95997b299xjb-stroke" data-item-order="-115082" transform="translate(351, 406.392578125)"><g id="3.line_3_sy_95997b299xjb-stroke" fill="none" stroke-linecap="round" stroke-linejoin="round" stroke-miterlimit="4" stroke="#484848" stroke-width="2"><g><path d="M 10 9.997559L 10 52.997559"></path><path d="M 3.5 46.997559L 10 53.497559L 16.5 46.997559" stroke-dasharray="none"></path></g></g></g><g id="g-root-3.line_4_sy_4pfr2v299ybk-stroke" data-item-order="-115078" transform="translate(327, 411.927734375)"><g id="3.line_4_sy_4pfr2v299ybk-stroke" fill="none" stroke-linecap="round" stroke-linejoin="round" stroke-miterlimit="4" stroke="#484848" stroke-width="2"><g><path d="M 10 10.002197L 10 53.002197"></path><path d="M 3.5 47.002197L 10 53.502197L 16.5 47.002197" stroke-dasharray="none"></path></g></g></g><g id="g-root-3.line_5_sy_4pfr2v299ybl-stroke" data-item-order="-115074" transform="translate(303, 417.462890625)"><g id="3.line_5_sy_4pfr2v299ybl-stroke" fill="none" stroke-linecap="round" stroke-linejoin="round" stroke-miterlimit="4" stroke="#484848" stroke-width="2"><g><path d="M 10 9.99707L 10 52.99707"></path><path d="M 3.5 46.99707L 10 53.49707L 16.5 46.99707" stroke-dasharray="none"></path></g></g></g><g id="g-root-3.line_6_sy_1uuwst3299yx6-stroke" data-item-order="-115070" transform="translate(279, 422.998046875)"><g id="3.line_6_sy_1uuwst3299yx6-stroke" fill="none" stroke-linecap="round" stroke-linejoin="round" stroke-miterlimit="4" stroke="#484848" stroke-width="2"><g><path d="M 10 10.001953L 10 53.001953"></path><path d="M 3.5 47.001953L 10 53.501953L 16.5 47.001953" stroke-dasharray="none"></path></g></g></g><g id="g-root-3.cu_sy_1uuwst3299yx7-stroke" data-item-order="-115069" transform="translate(123, 345)"><g id="3.cu_sy_1uuwst3299yx7-stroke" fill="none" stroke-linecap="round" stroke-linejoin="round" stroke-miterlimit="4" stroke="#ffffff" stroke-width="2"><g><path d="M 10 40L 10 52L 166 88L 322 52L 322 40M 10 40L 165.9714 76L 322 40M 10 40L 140 10L 166 16L 192 10L 322 40"></path></g></g></g><g id="g-root-2.line_sy_1qf3aon299zpg-stroke" data-item-order="-115062" transform="translate(183, 328.84375)"><g id="2.line_sy_1qf3aon299zpg-stroke" fill="none" stroke-linecap="round" stroke-linejoin="round" stroke-miterlimit="4" stroke="#484848" stroke-width="2"><g><path d="M 10 9.996338L 10 52.996338"></path><path d="M 3.5 46.996338L 10 53.496338L 16.5 46.996338" stroke-dasharray="none"></path></g></g></g><g id="g-root-2.line_1_sy_1qf3aon299zph-stroke" data-item-order="-115058" transform="translate(207, 334.3828125)"><g id="2.line_1_sy_1qf3aon299zph-stroke" fill="none" stroke-linecap="round" stroke-linejoin="round" stroke-miterlimit="4" stroke="#484848" stroke-width="2"><g><path d="M 10 9.99707L 10 52.99707"></path><path d="M 3.5 46.99707L 10 53.49707L 16.5 46.99707" stroke-dasharray="none"></path></g></g></g><g id="g-root-2.line_2_sy_1ha365329bbwu-stroke" data-item-order="-115054" transform="translate(231, 339.921875)"><g id="2.line_2_sy_1ha365329bbwu-stroke" fill="none" stroke-linecap="round" stroke-linejoin="round" stroke-miterlimit="4" stroke="#484848" stroke-width="2"><g><path d="M 10 9.998047L 10 52.998047"></path><path d="M 3.5 46.998047L 10 53.498047L 16.5 46.998047" stroke-dasharray="none"></path></g></g></g><g id="g-root-2.line_3_sy_1ha365329bbwv-stroke" data-item-order="-115050" transform="translate(255, 345.4609375)"><g id="2.line_3_sy_1ha365329bbwv-stroke" fill="none" stroke-linecap="round" stroke-linejoin="round" stroke-miterlimit="4" stroke="#484848" stroke-width="2"><g><path d="M 10 9.999023L 10 52.999023"></path><path d="M 3.5 46.999023L 10 53.499023L 16.5 46.999023" stroke-dasharray="none"></path></g></g></g><g id="g-root-2.line_4_sy_1cu9o0n29bcp4-stroke" data-item-order="-115046" transform="translate(375, 328.857421875)"><g id="2.line_4_sy_1cu9o0n29bcp4-stroke" fill="none" stroke-linecap="round" stroke-linejoin="round" stroke-miterlimit="4" stroke="#484848" stroke-width="2"><g><path d="M 10 10.002441L 10 53.002441"></path><path d="M 3.5 47.002441L 10 53.502441L 16.5 47.002441" stroke-dasharray="none"></path></g></g></g><g id="g-root-2.line_5_sy_1cu9o0n29bcp5-stroke" data-item-order="-115042" transform="translate(351, 334.392578125)"><g id="2.line_5_sy_1cu9o0n29bcp5-stroke" fill="none" stroke-linecap="round" stroke-linejoin="round" stroke-miterlimit="4" stroke="#484848" stroke-width="2"><g><path d="M 10 9.997559L 10 52.997559"></path><path d="M 3.5 46.997559L 10 53.497559L 16.5 46.997559" stroke-dasharray="none"></path></g></g></g><g id="g-root-2.line_6_sy_1cu9o0n29bcp6-stroke" data-item-order="-115038" transform="translate(327, 339.927734375)"><g id="2.line_6_sy_1cu9o0n29bcp6-stroke" fill="none" stroke-linecap="round" stroke-linejoin="round" stroke-miterlimit="4" stroke="#484848" stroke-width="2"><g><path d="M 10 10.002197L 10 53.002197"></path><path d="M 3.5 47.002197L 10 53.502197L 16.5 47.002197" stroke-dasharray="none"></path></g></g></g><g id="g-root-2.line_7_sy_18eg5w729bdhf-stroke" data-item-order="-115034" transform="translate(303, 345.462890625)"><g id="2.line_7_sy_18eg5w729bdhf-stroke" fill="none" stroke-linecap="round" stroke-linejoin="round" stroke-miterlimit="4" stroke="#484848" stroke-width="2"><g><path d="M 10 9.99707L 10 52.99707"></path><path d="M 3.5 46.99707L 10 53.49707L 16.5 46.99707" stroke-dasharray="none"></path></g></g></g><g id="g-root-2.line_8_sy_zit5nb29bea4-stroke" data-item-order="-115030" transform="translate(279, 350.998046875)"><g id="2.line_8_sy_zit5nb29bea4-stroke" fill="none" stroke-linecap="round" stroke-linejoin="round" stroke-miterlimit="4" stroke="#484848" stroke-width="2"><g><path d="M 10 10.001953L 10 53.001953"></path><path d="M 3.5 47.001953L 10 53.501953L 16.5 47.001953" stroke-dasharray="none"></path></g></g></g><g id="g-root-2.cu_sy_v3m4lz29bbwl-stroke" data-item-order="-115029" transform="translate(123, 273)"><g id="2.cu_sy_v3m4lz29bbwl-stroke" fill="none" stroke-linecap="round" stroke-linejoin="round" stroke-miterlimit="4" stroke="#ffffff" stroke-width="2"><g><path d="M 10 40L 10 52L 166 88L 322 52L 322 40M 10 40L 165.9714 76L 322 40M 10 40L 140 10L 166 16L 192 10L 322 40"></path></g></g></g><g id="g-root-1.line_sy_m7z4d329bcpa-stroke" data-item-order="-115022" transform="translate(159, 251.3046875)"><g id="1.line_sy_m7z4d329bcpa-stroke" fill="none" stroke-linecap="round" stroke-linejoin="round" stroke-miterlimit="4" stroke="#484848" stroke-width="2"><g><path d="M 10 9.995361L 10 52.995361"></path><path d="M 3.5 46.995361L 10 53.495361L 16.5 46.995361" stroke-dasharray="none"></path></g></g></g><g id="g-root-1.line_1_sy_hs5m8n29bdhj-stroke" data-item-order="-115018" transform="translate(183, 256.84375)"><g id="1.line_1_sy_hs5m8n29bdhj-stroke" fill="none" stroke-linecap="round" stroke-linejoin="round" stroke-miterlimit="4" stroke="#484848" stroke-width="2"><g><path d="M 10 9.996338L 10 52.996338"></path><path d="M 3.5 46.996338L 10 53.496338L 16.5 46.996338" stroke-dasharray="none"></path></g></g></g><g id="g-root-1.line_2_sy_hs5m8n29bdhk-stroke" data-item-order="-115014" transform="translate(207, 262.3828125)"><g id="1.line_2_sy_hs5m8n29bdhk-stroke" fill="none" stroke-linecap="round" stroke-linejoin="round" stroke-miterlimit="4" stroke="#484848" stroke-width="2"><g><path d="M 10 9.99707L 10 52.99707"></path><path d="M 3.5 46.99707L 10 53.49707L 16.5 46.99707" stroke-dasharray="none"></path></g></g></g><g id="g-root-1.line_3_sy_dcc44729be9t-stroke" data-item-order="-115010" transform="translate(231, 267.921875)"><g id="1.line_3_sy_dcc44729be9t-stroke" fill="none" stroke-linecap="round" stroke-linejoin="round" stroke-miterlimit="4" stroke="#484848" stroke-width="2"><g><path d="M 10 9.998047L 10 52.998047"></path><path d="M 3.5 46.998047L 10 53.498047L 16.5 46.998047" stroke-dasharray="none"></path></g></g></g><g id="g-root-1.line_4_sy_dcc44729be9u-stroke" data-item-order="-115006" transform="translate(255, 273.4609375)"><g id="1.line_4_sy_dcc44729be9u-stroke" fill="none" stroke-linecap="round" stroke-linejoin="round" stroke-miterlimit="4" stroke="#484848" stroke-width="2"><g><path d="M 10 9.999023L 10 52.999023"></path><path d="M 3.5 46.999023L 10 53.499023L 16.5 46.999023" stroke-dasharray="none"></path></g></g></g><g id="g-root-1.line_5_sy_dcc44729be9v-stroke" data-item-order="-115002" transform="translate(399, 251.322265625)"><g id="1.line_5_sy_dcc44729be9v-stroke" fill="none" stroke-linecap="round" stroke-linejoin="round" stroke-miterlimit="4" stroke="#484848" stroke-width="2"><g><path d="M 10 9.997803L 10 52.997803"></path><path d="M 3.5 46.997803L 10 53.497803L 16.5 46.997803" stroke-dasharray="none"></path></g></g></g><g id="g-root-1.line_6_sy_4hbkyf29bbws-stroke" data-item-order="-114998" transform="translate(375, 256.857177734375)"><g id="1.line_6_sy_4hbkyf29bbws-stroke" fill="none" stroke-linecap="round" stroke-linejoin="round" stroke-miterlimit="4" stroke="#484848" stroke-width="2"><g><path d="M 10 10.002686L 10 53.002686"></path><path d="M 3.5 47.002686L 10 53.502686L 16.5 47.002686" stroke-dasharray="none"></path></g></g></g><g id="g-root-1.line_7_sy_4hbkyf29bbwt-stroke" data-item-order="-114994" transform="translate(351, 262.392822265625)"><g id="1.line_7_sy_4hbkyf29bbwt-stroke" fill="none" stroke-linecap="round" stroke-linejoin="round" stroke-miterlimit="4" stroke="#484848" stroke-width="2"><g><path d="M 10 9.997314L 10 52.997314"></path><path d="M 3.5 46.997314L 10 53.497314L 16.5 46.997314" stroke-dasharray="none"></path></g></g></g><g id="g-root-1.line_8_sy_1i2tz29bcp2-stroke" data-item-order="-114990" transform="translate(327, 267.927734375)"><g id="1.line_8_sy_1i2tz29bcp2-stroke" fill="none" stroke-linecap="round" stroke-linejoin="round" stroke-miterlimit="4" stroke="#484848" stroke-width="2"><g><path d="M 10 10.002197L 10 53.002197"></path><path d="M 3.5 47.002197L 10 53.502197L 16.5 47.002197" stroke-dasharray="none"></path></g></g></g><g id="g-root-1.line_9_sy_1i2tz29bcp3-stroke" data-item-order="-114986" transform="translate(303, 273.462890625)"><g id="1.line_9_sy_1i2tz29bcp3-stroke" fill="none" stroke-linecap="round" stroke-linejoin="round" stroke-miterlimit="4" stroke="#484848" stroke-width="2"><g><path d="M 10 9.99707L 10 52.99707"></path><path d="M 3.5 46.99707L 10 53.49707L 16.5 46.99707" stroke-dasharray="none"></path></g></g></g><g id="g-root-1.line_10_sy_1i2tz29bcp4-stroke" data-item-order="-114982" transform="translate(279, 278.998046875)"><g id="1.line_10_sy_1i2tz29bcp4-stroke" fill="none" stroke-linecap="round" stroke-linejoin="round" stroke-miterlimit="4" stroke="#484848" stroke-width="2"><g><path d="M 10 10.001953L 10 53.001953"></path><path d="M 3.5 47.001953L 10 53.501953L 16.5 47.001953" stroke-dasharray="none"></path></g></g></g><g id="g-root-1.cu_sy_1umsmon29bda9-stroke" data-item-order="-114981" transform="translate(123, 195)"><g id="1.cu_sy_1umsmon29bda9-stroke" fill="none" stroke-linecap="round" stroke-linejoin="round" stroke-miterlimit="4" stroke="#ffffff" stroke-width="2"><g><path d="M 10 46L 10 58L 166 94L 322 58L 322 46M 10 46L 166 10L 322 46M 10 46L 166 82L 322 46"></path></g></g></g><g id="g-root-0.line_sy_1lr5mfr29be2y-stroke" data-item-order="-114974" transform="translate(135, 171.000244140625)"><g id="0.line_sy_1lr5mfr29be2y-stroke" fill="none" stroke-linecap="round" stroke-linejoin="round" stroke-miterlimit="4" stroke="#484848" stroke-width="2"><g><path d="M 10 9.999756L 10 55.769756"></path><path d="M 3.5 49.799756L 10 56.299756L 16.5 49.799756" stroke-dasharray="none"></path></g></g></g><g id="g-root-0.line_1_sy_1lr5mfr29be2z-stroke" data-item-order="-114970" transform="translate(351, 183)"><g id="0.line_1_sy_1lr5mfr29be2z-stroke" fill="none" stroke-linecap="round" stroke-linejoin="round" stroke-miterlimit="4" stroke="#484848" stroke-width="2"><g><path d="M 10 10L 10 60.39"></path><path d="M 3.5 54.4L 10 60.9L 16.5 54.4" stroke-dasharray="none"></path></g></g></g><g id="g-root-0.line_2_sy_1lr5mfr29be30-stroke" data-item-order="-114966" transform="translate(303, 183)"><g id="0.line_2_sy_1lr5mfr29be30-stroke" fill="none" stroke-linecap="round" stroke-linejoin="round" stroke-miterlimit="4" stroke="#484848" stroke-width="2"><g><path d="M 10 10L 10 71.46"></path><path d="M 3.5 65.5L 10 72L 16.5 65.5" stroke-dasharray="none"></path></g></g></g><g id="g-root-0.line_3_sy_1hbylef29bbph-stroke" data-item-order="-114962" transform="translate(207, 183)"><g id="0.line_3_sy_1hbylef29bbph-stroke" fill="none" stroke-linecap="round" stroke-linejoin="round" stroke-miterlimit="4" stroke="#484848" stroke-width="2"><g><path d="M 10 10L 10 60.38"></path><path d="M 3.5 54.4L 10 60.9L 16.5 54.4" stroke-dasharray="none"></path></g></g></g><g id="g-root-0.line_4_sy_1hbylef29bbpi-stroke" data-item-order="-114958" transform="translate(327, 171)"><g id="0.line_4_sy_1hbylef29bbpi-stroke" fill="none" stroke-linecap="round" stroke-linejoin="round" stroke-miterlimit="4" stroke="#484848" stroke-width="2"><g><path d="M 10 10L 10 77.93"></path><path d="M 3.5 71.9L 10 78.4L 16.5 71.9" stroke-dasharray="none"></path></g></g></g><g id="g-root-0.line_5_sy_18gbl5j29bci7-stroke" data-item-order="-114954" transform="translate(159, 183)"><g id="0.line_5_sy_18gbl5j29bci7-stroke" fill="none" stroke-linecap="round" stroke-linejoin="round" stroke-miterlimit="4" stroke="#484848" stroke-width="2"><g><path d="M 10 10L 10 49.31"></path><path d="M 3.5 43.3L 10 49.8L 16.5 43.3" stroke-dasharray="none"></path></g></g></g><g id="g-root-0.line_6_sy_1cw539z29bchs-stroke" data-item-order="-114950" transform="translate(423, 171)"><g id="0.line_6_sy_1cw539z29bchs-stroke" fill="none" stroke-linecap="round" stroke-linejoin="round" stroke-miterlimit="4" stroke="#484848" stroke-width="2"><g><path d="M 10 10L 10 55.79"></path><path d="M 3.5 49.8L 10 56.3L 16.5 49.8" stroke-dasharray="none"></path></g></g></g><g id="g-root-0.line_7_sy_1cw539z29bcht-stroke" data-item-order="-114946" transform="translate(375, 171)"><g id="0.line_7_sy_1cw539z29bcht-stroke" fill="none" stroke-linecap="round" stroke-linejoin="round" stroke-miterlimit="4" stroke="#484848" stroke-width="2"><g><path d="M 10 10L 10 66.86"></path><path d="M 3.5 60.9L 10 67.4L 16.5 60.9" stroke-dasharray="none"></path></g></g></g><g id="g-root-0.line_8_sy_140i31329bdai-stroke" data-item-order="-114942" transform="translate(183, 171)"><g id="0.line_8_sy_140i31329bdai-stroke" fill="none" stroke-linecap="round" stroke-linejoin="round" stroke-miterlimit="4" stroke="#484848" stroke-width="2"><g><path d="M 10 10L 10 66.84"></path><path d="M 3.5 60.8L 10 67.3L 16.5 60.8" stroke-dasharray="none"></path></g></g></g><g id="g-root-0.line_9_sy_140i31329bdaj-stroke" data-item-order="-114938" transform="translate(255, 183)"><g id="0.line_9_sy_140i31329bdaj-stroke" fill="none" stroke-linecap="round" stroke-linejoin="round" stroke-miterlimit="4" stroke="#484848" stroke-width="2"><g><path d="M 10 10L 10 71.46"></path><path d="M 3.5 65.5L 10 72L 16.5 65.5" stroke-dasharray="none"></path></g></g></g><g id="g-root-0.line_10_sy_140i31329bdak-stroke" data-item-order="-114934" transform="translate(231, 171)"><g id="0.line_10_sy_140i31329bdak-stroke" fill="none" stroke-linecap="round" stroke-linejoin="round" stroke-miterlimit="4" stroke="#484848" stroke-width="2"><g><path d="M 10 10L 10 77.92"></path><path d="M 3.5 71.9L 10 78.4L 16.5 71.9" stroke-dasharray="none"></path></g></g></g><g id="g-root-0.line_11_sy_zkokwn29be2t-stroke" data-item-order="-114930" transform="translate(399, 183)"><g id="0.line_11_sy_zkokwn29be2t-stroke" fill="none" stroke-linecap="round" stroke-linejoin="round" stroke-miterlimit="4" stroke="#484848" stroke-width="2"><g><path d="M 10 10L 10 49.32"></path><path d="M 3.5 43.3L 10 49.8L 16.5 43.3" stroke-dasharray="none"></path></g></g></g><g id="g-root-0.line_12_sy_zkokwn29be2u-stroke" data-item-order="-114926" transform="translate(279, 171)"><g id="0.line_12_sy_zkokwn29be2u-stroke" fill="none" stroke-linecap="round" stroke-linejoin="round" stroke-miterlimit="4" stroke="#484848" stroke-width="2"><g><path d="M 10 10L 10 89"></path><path d="M 3.5 83L 10 89.5L 16.5 83" stroke-dasharray="none"></path></g></g></g><g id="g-root-tx__8ye19329be2w-stroke" data-item-order="0" transform="translate(15, 369)"></g><g id="g-root-tx__1cy0ijb29bbic-stroke" data-item-order="0" transform="translate(207, 555)"></g><g id="g-root-tx__1q8ujtj29bd36-stroke" data-item-order="0" transform="translate(15, 225)"></g><g id="g-root-tx__m9ujmf29bchz-stroke" data-item-order="0" transform="translate(15, 441)"></g><g id="g-root-tx__142diaf29bcb1-stroke" data-item-order="0" transform="translate(45, 39)"></g><g id="g-root-tx__1hd7jkn29bdvv-stroke" data-item-order="0" transform="translate(207, 135)"></g><g id="g-root-tx__1uoo1xz29bcax-stroke" data-item-order="0" transform="translate(15, 297)"></g></g></g></svg>