<?xml version="1.0" encoding="utf-8" standalone="yes"?>
<!DOCTYPE svg PUBLIC "-//W3C//DTD SVG 1.1//EN" "http://www.w3.org/Graphics/SVG/1.1/DTD/svg11.dtd">
<svg width="650" height="680" viewBox="0 0 650 680" style="fill:none;stroke:none;fill-rule:evenodd;clip-rule:evenodd;stroke-linecap:round;stroke-linejoin:round;stroke-miterlimit:1.5;" version="1.1" xmlns="http://www.w3.org/2000/svg" xmlns:xlink="http://www.w3.org/1999/xlink"><style class="text-font-style fontImports" data-font-family="Roboto">@import url('https://fonts.googleapis.com/css2?family=Roboto:wght@400;700&amp;display=block');</style><rect id="" x="0" y="0" width="650" height="680" style="fill: #ffffff;"></rect><g id="items" style="isolation: isolate"><g id="blend" style="mix-blend-mode: normal"><g id="g-root-tf_4l22uv3dcikk-fill" data-item-order="-439344" transform="translate(-9, -9)"><g id="tf_4l22uv3dcikk-fill" stroke="none" fill="#ffffff"><g><path d="M 10 10L 658 10L 658 688L 10 688Z"></path></g></g></g><g id="g-root-ro_qu0r933dp7uv-fill" data-item-order="-21168" transform="translate(207, 234)"><g id="ro_qu0r933dp7uv-fill" stroke="none" fill="#f5f5f5"><g><path d="M 34 10L 154 10C 154 10 178 10 178 34L 178 112C 178 112 178 136 154 136L 34 136C 34 136 10 136 10 112L 10 34C 10 34 10 10 34 10"></path></g></g></g><g id="g-root-ro_4pfbav3di618-fill" data-item-order="-10368" transform="translate(195, 495)"><g id="ro_4pfbav3di618-fill" stroke="none" fill="#ffeceb"><g><path d="M 22 10L 190 10C 190 10 202 10 202 22L 202 52C 202 52 202 64 190 64L 22 64C 22 64 10 64 10 52L 10 22C 10 22 10 10 22 10"></path></g></g></g><g id="g-root-ro_146qayf3dmf4f-fill" data-item-order="-10368" transform="translate(423, 141)"><g id="ro_146qayf3dmf4f-fill" stroke="none" fill="#faf0ff"><g><path d="M 22 10L 190 10C 190 10 202 10 202 22L 202 52C 202 52 202 64 190 64L 22 64C 22 64 10 64 10 52L 10 22C 10 22 10 10 22 10"></path></g></g></g><g id="g-root-ro_1hhkik73d5hqk-fill" data-item-order="-7776" transform="translate(15, 123)"><g id="ro_1hhkik73d5hqk-fill" stroke="none" fill="#f4ffdc"><g><path d="M 22 10L 142 10C 142 10 154 10 154 22L 154 52C 154 52 154 64 142 64L 22 64C 22 64 10 64 10 52L 10 22C 10 22 10 10 22 10"></path></g></g></g><g id="g-root-ro_18gb8jb3dcjkc-fill" data-item-order="-7776" transform="translate(15, 345)"><g id="ro_18gb8jb3dcjkc-fill" stroke="none" fill="#ffebf7"><g><path d="M 22 10L 142 10C 142 10 154 10 154 22L 154 52C 154 52 154 64 142 64L 22 64C 22 64 10 64 10 52L 10 22C 10 22 10 10 22 10"></path></g></g></g><g id="g-root-ro_8zc3b3d8bv0-fill" data-item-order="-7776" transform="translate(423, 327)"><g id="ro_8zc3b3d8bv0-fill" stroke="none" fill="#fffbda"><g><path d="M 22 10L 142 10C 142 10 154 10 154 22L 154 52C 154 52 154 64 142 64L 22 64C 22 64 10 64 10 52L 10 22C 10 22 10 10 22 10"></path></g></g></g><g id="g-root-cu_zko8af3dcl4w-fill" data-item-order="0" transform="translate(375, 168)"></g><g id="g-root-tx__mbpm9j3dcjd7-fill" data-item-order="0" transform="translate(213, 39)"><g id="tx__mbpm9j3dcjd7-fill" stroke="none" fill="#484848"><g><text style="font: 25px Roboto, sans-serif; white-space: pre;" font-size="25px" font-family="Roboto, sans-serif"><tspan x="13.79" y="42.6" dominant-baseline="ideographic">기업전략 수립 과정</tspan></text></g></g></g><g id="g-root-tx__1qf2uwn3di7f1-fill" data-item-order="0" transform="translate(63, 189)"><g id="tx__1qf2uwn3di7f1-fill" stroke="none" fill="#484848"><g><text style="font: 20px Roboto, sans-serif; white-space: pre;" font-size="20px" font-family="Roboto, sans-serif"><tspan x="15.6" y="34" dominant-baseline="ideographic">강점</tspan></text></g></g></g><g id="g-root-cu_hu0ovr3dckck-fill" data-item-order="0" transform="translate(117, 177)"></g><g id="g-root-cu_4j6nlj3dcirr-fill" data-item-order="0" transform="translate(117, 177)"></g><g id="g-root-cu_3d5h33dcjk1-fill" data-item-order="0" transform="translate(117, 177)"></g><g id="g-root-cu_1q8u77b3dck5n-fill" data-item-order="0" transform="translate(117, 177)"></g><g id="g-root-cu_1q8u77b3dck5p-fill" data-item-order="0" transform="translate(447, 195)"></g><g id="g-root-cu_1lt0p2v3dcky0-fill" data-item-order="0" transform="translate(447, 195)"></g><g id="g-root-cu_1hdto1j3dciki-fill" data-item-order="0" transform="translate(447, 195)"></g><g id="g-root-tx__4hb56f3djjm1-fill" data-item-order="0" transform="translate(471, 207)"><g id="tx__4hb56f3djjm1-fill" stroke="none" fill="#484848"><g><text style="font: 20px Roboto, sans-serif; white-space: pre;" font-size="20px" font-family="Roboto, sans-serif"><tspan x="15.6" y="34" dominant-baseline="ideographic">인력</tspan></text></g></g></g><g id="g-root-tx__1cu988n3djkem-fill" data-item-order="0" transform="translate(63, 225)"><g id="tx__1cu988n3djkem-fill" stroke="none" fill="#484848"><g><text style="font: 20px Roboto, sans-serif; white-space: pre;" font-size="20px" font-family="Roboto, sans-serif"><tspan x="15.6" y="34" dominant-baseline="ideographic">약점</tspan></text></g></g></g><g id="g-root-tx__1hn1z3djkea-fill" data-item-order="0" transform="translate(471, 243)"><g id="tx__1hn1z3djkea-fill" stroke="none" fill="#484848"><g><text style="font: 20px Roboto, sans-serif; white-space: pre;" font-size="20px" font-family="Roboto, sans-serif"><tspan x="15.6" y="34" dominant-baseline="ideographic">자금</tspan></text></g></g></g><g id="g-root-tx__v3lotz3djjlz-fill" data-item-order="0" transform="translate(63, 261)"><g id="tx__v3lotz3djjlz-fill" stroke="none" fill="#484848"><g><text style="font: 20px Roboto, sans-serif; white-space: pre;" font-size="20px" font-family="Roboto, sans-serif"><tspan x="15.6" y="34" dominant-baseline="ideographic">기회</tspan></text></g></g></g><g id="g-root-tx__1lr56nr3djls3-fill" data-item-order="0" transform="translate(471, 279)"><g id="tx__1lr56nr3djls3-fill" stroke="none" fill="#484848"><g><text style="font: 20px Roboto, sans-serif; white-space: pre;" font-size="20px" font-family="Roboto, sans-serif"><tspan x="15.6" y="34" dominant-baseline="ideographic">기술</tspan></text></g></g></g><g id="g-root-tx__hs56gn3djl6w-fill" data-item-order="0" transform="translate(63, 297)"><g id="tx__hs56gn3djl6w-fill" stroke="none" fill="#484848"><g><text style="font: 20px Roboto, sans-serif; white-space: pre;" font-size="20px" font-family="Roboto, sans-serif"><tspan x="15.6" y="34" dominant-baseline="ideographic">위협</tspan></text></g></g></g><g id="g-root-cu_qpnp4n3dciry-fill" data-item-order="0" transform="translate(159, 318)"></g><g id="g-root-cu_qpnp4n3dcirv-fill" data-item-order="0" transform="translate(375, 318)"></g><g id="g-root-cu_140hqev3dckcl-fill" data-item-order="0" transform="translate(159, 150)"></g><g id="g-root-cu_zmjnjr3dckxy-fill" data-item-order="0" transform="translate(219, 549)"></g><g id="g-root-cu_v7cmif3dcikh-fill" data-item-order="0" transform="translate(219, 549)"></g><g id="g-root-tx__1cxdlo73djll4-fill" data-item-order="0" transform="translate(243, 561)"><g id="tx__1cxdlo73djll4-fill" stroke="none" fill="#484848"><g><text style="font: 20px Roboto, sans-serif; white-space: pre;" font-size="20px" font-family="Roboto, sans-serif"><tspan x="12.72" y="34" dominant-baseline="ideographic">성과 평가</tspan></text></g></g></g><g id="g-root-cu_m9u7073dcjk9-fill" data-item-order="0" transform="translate(291, 360)"></g><g id="g-root-tx__zmjkdz3djk09-fill" data-item-order="0" transform="translate(243, 597)"><g id="tx__zmjkdz3djk09-fill" stroke="none" fill="#484848"><g><text style="font: 20px Roboto, sans-serif; white-space: pre;" font-size="20px" font-family="Roboto, sans-serif"><tspan x="15.52" y="34" dominant-baseline="ideographic">피드백 수집</tspan></text></g></g></g><g id="g-root-cu_1hdto1j3dcikk-fill" data-item-order="0" transform="translate(447, 381)"></g><g id="g-root-cu_18i6nsn3dcjdb-fill" data-item-order="0" transform="translate(447, 381)"></g><g id="g-root-cu_142d5o73dck5l-fill" data-item-order="0" transform="translate(117, 399)"></g><g id="g-root-cu_zmjnjr3dckxw-fill" data-item-order="0" transform="translate(117, 399)"></g><g id="g-root-tx__18gb5dj3djk78-fill" data-item-order="0" transform="translate(471, 393)"><g id="tx__18gb5dj3djk78-fill" stroke="none" fill="#484848"><g><text style="font: 20px Roboto, sans-serif; white-space: pre;" font-size="20px" font-family="Roboto, sans-serif"><tspan x="12.72" y="34" dominant-baseline="ideographic">시장 분석</tspan></text></g></g></g><g id="g-root-tx__8ydlh33djkzy-fill" data-item-order="0" transform="translate(27, 411)"><g id="tx__8ydlh33djkzy-fill" stroke="none" fill="#484848"><g><text style="font: 20px Roboto, sans-serif; white-space: pre;" font-size="20px" font-family="Roboto, sans-serif"><tspan x="12.72" y="34" dominant-baseline="ideographic">단기 목표</tspan></text></g></g></g><g id="g-root-tx__v4un073djls5-fill" data-item-order="0" transform="translate(471, 429)"><g id="tx__v4un073djls5-fill" stroke="none" fill="#484848"><g><text style="font: 20px Roboto, sans-serif; white-space: pre;" font-size="20px" font-family="Roboto, sans-serif"><tspan x="15.52" y="34" dominant-baseline="ideographic">경쟁자 분석</tspan></text></g></g></g><g id="g-root-tx__1q8u41j3djk07-fill" data-item-order="0" transform="translate(27, 447)"><g id="tx__1q8u41j3djk07-fill" stroke="none" fill="#484848"><g><text style="font: 20px Roboto, sans-serif; white-space: pre;" font-size="20px" font-family="Roboto, sans-serif"><tspan x="12.72" y="34" dominant-baseline="ideographic">장기 목표</tspan></text></g></g></g><g id="g-root-2_1d2db7b3dmebq-fill" data-item-order="1000000000" transform="translate(435, 153)"></g><g id="g-root-tx__1qdttkn3dmcqt-fill" data-item-order="1000000000" transform="translate(471, 156)"><g id="tx__1qdttkn3dmcqt-fill" stroke="none" fill="#ba5de5"><g><text style="font: 20px Roboto, sans-serif; white-space: pre;" font-size="20px" font-family="Roboto, sans-serif"><tspan x="15.84" y="34" dominant-baseline="ideographic">자원 활용 계획</tspan></text></g></g></g><g id="g-root-2_18larqv3dp5hq-fill" data-item-order="1000000000" transform="translate(267, 258)"></g><g id="g-root-tx__6h9fb3dp5ot-fill" data-item-order="1000000000" transform="translate(231, 312)"><g id="tx__6h9fb3dp5ot-fill" stroke="none" fill="#969696"><g><text style="font: 20px Roboto, sans-serif; white-space: pre;" font-size="20px" font-family="Roboto, sans-serif"><tspan x="12.32" y="34" dominant-baseline="ideographic">기업전략 수립</tspan></text></g></g></g><g id="g-root-path_1qcl1pz3d5k3n-fill" data-item-order="1000000000" transform="translate(117, 135)"></g><g id="g-root-2_djtddj3d8dfv-fill" data-item-order="1000000000" transform="translate(435, 339)"></g><g id="g-root-tx__qv9vqv3d8buy-fill" data-item-order="1000000000" transform="translate(471, 342)"><g id="tx__qv9vqv3d8buy-fill" stroke="none" fill="#e0cb15"><g><text style="font: 20px Roboto, sans-serif; white-space: pre;" font-size="20px" font-family="Roboto, sans-serif"><tspan x="12.72" y="34" dominant-baseline="ideographic">경쟁 전략</tspan></text></g></g></g><g id="g-root-tx__1hq7r3dcjre-fill" data-item-order="1000000000" transform="translate(27, 360)"><g id="tx__1hq7r3dcjre-fill" stroke="none" fill="#de58a9"><g><text style="font: 20px Roboto, sans-serif; white-space: pre;" font-size="20px" font-family="Roboto, sans-serif"><tspan x="12.72" y="34" dominant-baseline="ideographic">목표 설정</tspan></text></g></g></g><g id="g-root-goal_1lr59tj3dcl57-fill" data-item-order="1000000000" transform="translate(117, 357)"></g><g id="g-root-tx__hxrjef3d5kaq-fill" data-item-order="1000000000" transform="translate(27, 138)"><g id="tx__hxrjef3d5kaq-fill" stroke="none" fill="#92bd39"><g><text style="font: 20px Roboto, sans-serif; white-space: pre;" font-size="20px" font-family="Roboto, sans-serif"><tspan x="12.72" y="34" dominant-baseline="ideographic">환경 분석</tspan></text></g></g></g><g id="g-root-incr_dl2bjr3di58j-fill" data-item-order="1000000000" transform="translate(207, 507)"></g><g id="g-root-tx__qvwctz3di6te-fill" data-item-order="1000000000" transform="translate(243, 510)"><g id="tx__qvwctz3di6te-fill" stroke="none" fill="#e55753"><g><text style="font: 20px Roboto, sans-serif; white-space: pre;" font-size="20px" font-family="Roboto, sans-serif"><tspan x="15.84" y="34" dominant-baseline="ideographic">실행 및 피드백</tspan></text></g></g></g><g id="g-root-tf_4l22uv3dcikk-stroke" data-item-order="-439344" transform="translate(-9, -9)"></g><g id="g-root-ro_qu0r933dp7uv-stroke" data-item-order="-21168" transform="translate(207, 234)"><g id="ro_qu0r933dp7uv-stroke" fill="none" stroke-linecap="round" stroke-linejoin="round" stroke-miterlimit="4" stroke="#484848" stroke-width="2"><g><path d="M 34 10L 154 10C 154 10 178 10 178 34L 178 112C 178 112 178 136 154 136L 34 136C 34 136 10 136 10 112L 10 34C 10 34 10 10 34 10"></path></g></g></g><g id="g-root-ro_4pfbav3di618-stroke" data-item-order="-10368" transform="translate(195, 495)"><g id="ro_4pfbav3di618-stroke" fill="none" stroke-linecap="round" stroke-linejoin="round" stroke-miterlimit="4" stroke="#e55753" stroke-width="2"><g><path d="M 22 10L 190 10C 190 10 202 10 202 22L 202 52C 202 52 202 64 190 64L 22 64C 22 64 10 64 10 52L 10 22C 10 22 10 10 22 10"></path></g></g></g><g id="g-root-ro_146qayf3dmf4f-stroke" data-item-order="-10368" transform="translate(423, 141)"><g id="ro_146qayf3dmf4f-stroke" fill="none" stroke-linecap="round" stroke-linejoin="round" stroke-miterlimit="4" stroke="#ba5de5" stroke-width="2"><g><path d="M 22 10L 190 10C 190 10 202 10 202 22L 202 52C 202 52 202 64 190 64L 22 64C 22 64 10 64 10 52L 10 22C 10 22 10 10 22 10"></path></g></g></g><g id="g-root-ro_1hhkik73d5hqk-stroke" data-item-order="-7776" transform="translate(15, 123)"><g id="ro_1hhkik73d5hqk-stroke" fill="none" stroke-linecap="round" stroke-linejoin="round" stroke-miterlimit="4" stroke="#92bd39" stroke-width="2"><g><path d="M 22 10L 142 10C 142 10 154 10 154 22L 154 52C 154 52 154 64 142 64L 22 64C 22 64 10 64 10 52L 10 22C 10 22 10 10 22 10"></path></g></g></g><g id="g-root-ro_18gb8jb3dcjkc-stroke" data-item-order="-7776" transform="translate(15, 345)"><g id="ro_18gb8jb3dcjkc-stroke" fill="none" stroke-linecap="round" stroke-linejoin="round" stroke-miterlimit="4" stroke="#de58a9" stroke-width="2"><g><path d="M 22 10L 142 10C 142 10 154 10 154 22L 154 52C 154 52 154 64 142 64L 22 64C 22 64 10 64 10 52L 10 22C 10 22 10 10 22 10"></path></g></g></g><g id="g-root-ro_8zc3b3d8bv0-stroke" data-item-order="-7776" transform="translate(423, 327)"><g id="ro_8zc3b3d8bv0-stroke" fill="none" stroke-linecap="round" stroke-linejoin="round" stroke-miterlimit="4" stroke="#e0cb15" stroke-width="2"><g><path d="M 22 10L 142 10C 142 10 154 10 154 22L 154 52C 154 52 154 64 142 64L 22 64C 22 64 10 64 10 52L 10 22C 10 22 10 10 22 10"></path></g></g></g><g id="g-root-cu_zko8af3dcl4w-stroke" data-item-order="0" transform="translate(375, 168)"><g id="cu_zko8af3dcl4w-stroke" fill="none" stroke-linecap="round" stroke-linejoin="round" stroke-miterlimit="4" stroke="#969696" stroke-width="2" stroke-dasharray="5.0, 7.0"><g><path d="M 10 118L 13 118L 13.1 118C 24.642749 118.000007 33.999998 108.642757 33.999998 97.100005L 34 97L 34 30.9C 33.999999 19.357249 43.357248 10.000001 54.899999 10.000002L 55 10L 58 10"></path></g></g></g><g id="g-root-tx__mbpm9j3dcjd7-stroke" data-item-order="0" transform="translate(213, 39)"></g><g id="g-root-tx__1qf2uwn3di7f1-stroke" data-item-order="0" transform="translate(63, 189)"></g><g id="g-root-cu_hu0ovr3dckck-stroke" data-item-order="0" transform="translate(117, 177)"><g id="cu_hu0ovr3dckck-stroke" fill="none" stroke-linecap="round" stroke-linejoin="round" stroke-miterlimit="4" stroke="#969696" stroke-width="2" stroke-dasharray="5.0, 7.0"><g><path d="M 28 10L 28 22L 28 34L 19 34L 10 34"></path></g></g></g><g id="g-root-cu_4j6nlj3dcirr-stroke" data-item-order="0" transform="translate(117, 177)"><g id="cu_4j6nlj3dcirr-stroke" fill="none" stroke-linecap="round" stroke-linejoin="round" stroke-miterlimit="4" stroke="#969696" stroke-width="2" stroke-dasharray="5.0, 7.0"><g><path d="M 28 10L 28 40L 28 70L 19 70L 10 70"></path></g></g></g><g id="g-root-cu_3d5h33dcjk1-stroke" data-item-order="0" transform="translate(117, 177)"><g id="cu_3d5h33dcjk1-stroke" fill="none" stroke-linecap="round" stroke-linejoin="round" stroke-miterlimit="4" stroke="#969696" stroke-width="2" stroke-dasharray="5.0, 7.0"><g><path d="M 28 10L 28 58L 28 106L 19 106L 10 106"></path></g></g></g><g id="g-root-cu_1q8u77b3dck5n-stroke" data-item-order="0" transform="translate(117, 177)"><g id="cu_1q8u77b3dck5n-stroke" fill="none" stroke-linecap="round" stroke-linejoin="round" stroke-miterlimit="4" stroke="#969696" stroke-width="2" stroke-dasharray="5.0, 7.0"><g><path d="M 28 10L 28 26.5L 28 130C 28.000005 136.627421 22.627422 142.000005 16.000005 142.000005L 15.9 142L 10 142"></path></g></g></g><g id="g-root-cu_1q8u77b3dck5p-stroke" data-item-order="0" transform="translate(447, 195)"><g id="cu_1q8u77b3dck5p-stroke" fill="none" stroke-linecap="round" stroke-linejoin="round" stroke-miterlimit="4" stroke="#969696" stroke-width="2" stroke-dasharray="5.0, 7.0"><g><path d="M 10 10L 10 22L 10 34L 19 34L 28 34"></path></g></g></g><g id="g-root-cu_1lt0p2v3dcky0-stroke" data-item-order="0" transform="translate(447, 195)"><g id="cu_1lt0p2v3dcky0-stroke" fill="none" stroke-linecap="round" stroke-linejoin="round" stroke-miterlimit="4" stroke="#969696" stroke-width="2" stroke-dasharray="5.0, 7.0"><g><path d="M 10 10L 10 40L 10 70L 19 70L 28 70"></path></g></g></g><g id="g-root-cu_1hdto1j3dciki-stroke" data-item-order="0" transform="translate(447, 195)"><g id="cu_1hdto1j3dciki-stroke" fill="none" stroke-linecap="round" stroke-linejoin="round" stroke-miterlimit="4" stroke="#969696" stroke-width="2" stroke-dasharray="5.0, 7.0"><g><path d="M 10 10L 10 22L 10 94C 10.000004 100.627423 15.372587 106.000006 22.000005 106.000005L 22.1 106L 28 106"></path></g></g></g><g id="g-root-tx__4hb56f3djjm1-stroke" data-item-order="0" transform="translate(471, 207)"></g><g id="g-root-tx__1cu988n3djkem-stroke" data-item-order="0" transform="translate(63, 225)"></g><g id="g-root-tx__1hn1z3djkea-stroke" data-item-order="0" transform="translate(471, 243)"></g><g id="g-root-tx__v3lotz3djjlz-stroke" data-item-order="0" transform="translate(63, 261)"></g><g id="g-root-tx__1lr56nr3djls3-stroke" data-item-order="0" transform="translate(471, 279)"></g><g id="g-root-tx__hs56gn3djl6w-stroke" data-item-order="0" transform="translate(63, 297)"></g><g id="g-root-cu_qpnp4n3dciry-stroke" data-item-order="0" transform="translate(159, 318)"><g id="cu_qpnp4n3dciry-stroke" fill="none" stroke-linecap="round" stroke-linejoin="round" stroke-miterlimit="4" stroke="#969696" stroke-width="2" stroke-dasharray="5.0, 7.0"><g><path d="M 58 10L 55 10L 54.9 10C 43.357248 10.000001 33.999999 19.357249 33.999999 30.9L 34 31L 34 43.1C 34 54.642753 24.642751 64.000002 13.099999 64.000001L 13 64L 10 64"></path></g></g></g><g id="g-root-cu_qpnp4n3dcirv-stroke" data-item-order="0" transform="translate(375, 318)"><g id="cu_qpnp4n3dcirv-stroke" fill="none" stroke-linecap="round" stroke-linejoin="round" stroke-miterlimit="4" stroke="#969696" stroke-width="2" stroke-dasharray="5.0, 7.0"><g><path d="M 10 10L 13 10L 13.1 10C 17.649099 9.994772 22.512377 11.792071 26.9 15.100001C 29.537378 17.103929 32.127628 21.810158 34.000001 28.000001C 35.872373 34.189843 38.462623 38.896072 41.100001 40.900001C 45.487625 44.207934 50.350903 46.005233 54.900002 46.000005L 55 46L 58 46"></path></g></g></g><g id="g-root-cu_140hqev3dckcl-stroke" data-item-order="0" transform="translate(159, 150)"><g id="cu_140hqev3dckcl-stroke" fill="none" stroke-linecap="round" stroke-linejoin="round" stroke-miterlimit="4" stroke="#969696" stroke-width="2" stroke-dasharray="5.0, 7.0"><g><path d="M 58 136L 55 136L 54.9 136C 43.357249 136.000008 34 126.642759 34 115.100007L 34 115L 34 30.9C 33.999998 19.357248 24.64275 10 13.1 10L 13 10L 10 10"></path></g></g></g><g id="g-root-cu_zmjnjr3dckxy-stroke" data-item-order="0" transform="translate(219, 549)"><g id="cu_zmjnjr3dckxy-stroke" fill="none" stroke-linecap="round" stroke-linejoin="round" stroke-miterlimit="4" stroke="#969696" stroke-width="2" stroke-dasharray="5.0, 7.0"><g><path d="M 10 10L 10 22L 10 34L 19 34L 28 34"></path></g></g></g><g id="g-root-cu_v7cmif3dcikh-stroke" data-item-order="0" transform="translate(219, 549)"><g id="cu_v7cmif3dcikh-stroke" fill="none" stroke-linecap="round" stroke-linejoin="round" stroke-miterlimit="4" stroke="#969696" stroke-width="2" stroke-dasharray="5.0, 7.0"><g><path d="M 10 10L 10 17.5L 10 58C 10.000002 64.627417 15.372585 70 22.000002 69.999999L 22.1 70L 28 70"></path></g></g></g><g id="g-root-tx__1cxdlo73djll4-stroke" data-item-order="0" transform="translate(243, 561)"></g><g id="g-root-cu_m9u7073dcjk9-stroke" data-item-order="0" transform="translate(291, 360)"><g id="cu_m9u7073dcjk9-stroke" fill="none" stroke-linecap="round" stroke-linejoin="round" stroke-miterlimit="4" stroke="#969696" stroke-width="2" stroke-dasharray="5.0, 7.0"><g><path d="M 10 10L 10 77.5L 10 145"></path></g></g></g><g id="g-root-tx__zmjkdz3djk09-stroke" data-item-order="0" transform="translate(243, 597)"></g><g id="g-root-cu_1hdto1j3dcikk-stroke" data-item-order="0" transform="translate(447, 381)"><g id="cu_1hdto1j3dcikk-stroke" fill="none" stroke-linecap="round" stroke-linejoin="round" stroke-miterlimit="4" stroke="#969696" stroke-width="2" stroke-dasharray="5.0, 7.0"><g><path d="M 10 10L 10 22L 10 34L 19 34L 28 34"></path></g></g></g><g id="g-root-cu_18i6nsn3dcjdb-stroke" data-item-order="0" transform="translate(447, 381)"><g id="cu_18i6nsn3dcjdb-stroke" fill="none" stroke-linecap="round" stroke-linejoin="round" stroke-miterlimit="4" stroke="#969696" stroke-width="2" stroke-dasharray="5.0, 7.0"><g><path d="M 10 10L 10 17.5L 10 58C 10.000002 64.627417 15.372585 70 22.000002 69.999999L 22.1 70L 28 70"></path></g></g></g><g id="g-root-cu_142d5o73dck5l-stroke" data-item-order="0" transform="translate(117, 399)"><g id="cu_142d5o73dck5l-stroke" fill="none" stroke-linecap="round" stroke-linejoin="round" stroke-miterlimit="4" stroke="#969696" stroke-width="2" stroke-dasharray="5.0, 7.0"><g><path d="M 28 10L 28 22L 28 34L 19 34L 10 34"></path></g></g></g><g id="g-root-cu_zmjnjr3dckxw-stroke" data-item-order="0" transform="translate(117, 399)"><g id="cu_zmjnjr3dckxw-stroke" fill="none" stroke-linecap="round" stroke-linejoin="round" stroke-miterlimit="4" stroke="#969696" stroke-width="2" stroke-dasharray="5.0, 7.0"><g><path d="M 28 10L 28 17.5L 28 58C 27.999999 64.627415 22.627416 69.999998 16 69.999998L 15.9 70L 10 70"></path></g></g></g><g id="g-root-tx__18gb5dj3djk78-stroke" data-item-order="0" transform="translate(471, 393)"></g><g id="g-root-tx__8ydlh33djkzy-stroke" data-item-order="0" transform="translate(27, 411)"></g><g id="g-root-tx__v4un073djls5-stroke" data-item-order="0" transform="translate(471, 429)"></g><g id="g-root-tx__1q8u41j3djk07-stroke" data-item-order="0" transform="translate(27, 447)"></g><g id="g-root-2_1d2db7b3dmebq-stroke" data-item-order="1000000000" transform="translate(435, 153)"><g id="2_1d2db7b3dmebq-stroke" fill="none" stroke-linecap="round" stroke-linejoin="round" stroke-miterlimit="4" stroke="#ba5de5" stroke-width="2"><g><path d="M 29.625 15.750012L 34.375 15.750012C 35.375 15.750012 36.25 16.625013 36.25 17.625011L 36.25 37.125C 36.25 38.125 35.375 39 34.375 39L 15.625 39C 14.625 39 13.75 38.125 13.75 37.125L 13.75 17.625011C 13.75 16.625013 14.625 15.750012 15.625 15.750012L 20.374987 15.750012C 20.374987 13.125012 22.5 11.000004 25.125 11.000004C 27.625 11.125004 29.625 13.125012 29.625 15.750012ZM 25 14.75C 24.75 14.75 24.5 14.875 24.5 15.25C 24.5 15.5 24.75 15.75 25 15.75M 24.999874 14.75C 25.249874 14.75 25.499876 14.875 25.499876 15.25C 25.499876 15.5 25.249874 15.75 24.999874 15.75M 30.500126 35C 29.250124 33.375 27.250126 32.375 25.000126 32.375C 22.750126 32.375 20.750124 33.375 19.500126 35M 28.874876 26.75C 28.874876 28.875 27.124874 30.625 24.999874 30.625C 22.874874 30.625 21.124876 28.875 21.124876 26.75L 21.124876 24.875C 21.124876 22.75 22.874874 21 24.999874 21C 27.124874 21 28.874876 22.75 28.874876 24.875L 28.874876 26.75ZM 19.375 25.375L 30.625 25.375M 25 19.375L 25 22.25"></path></g></g></g><g id="g-root-tx__1qdttkn3dmcqt-stroke" data-item-order="1000000000" transform="translate(471, 156)"></g><g id="g-root-2_18larqv3dp5hq-stroke" data-item-order="1000000000" transform="translate(267, 258)"><g id="2_18larqv3dp5hq-stroke" fill="none" stroke-linecap="round" stroke-linejoin="round" stroke-miterlimit="4" stroke="#969696" stroke-width="2"><g><path d="M 56.5 51.537998C 56.5 54.299423 54.261425 56.538002 51.5 56.538002L 16.5 56.537998C 13.738577 56.538002 11.5 54.299423 11.5 51.538002C 11.5 48.776577 13.738577 46.538002 16.5 46.538002L 51.5 46.537998C 54.261425 46.538002 56.5 48.776577 56.5 51.538002ZM 18.32 36.302002L 29.827999 36.302002L 29.827999 46.538002L 18.32 46.538002ZM 18 51.537998C 18 52.090286 18.447716 52.537998 19 52.537998C 19.552284 52.537998 20 52.090286 20 51.537998C 20 50.985714 19.552284 50.537998 19 50.537998C 18.447716 50.537998 18 50.985714 18 51.537998M 28 51.537998C 28 52.090286 28.447716 52.537998 29 52.537998C 29.552284 52.537998 30 52.090286 30 51.537998C 30 50.985714 29.552284 50.537998 29 50.537998C 28.447716 50.537998 28 50.985714 28 51.537998M 38.084 51.537998C 38.084 52.090286 38.531715 52.537998 39.084 52.537998C 39.636284 52.537998 40.084 52.090286 40.084 51.537998C 40.084 50.985714 39.636284 50.537998 39.084 50.537998C 38.531715 50.537998 38.084 50.985714 38.084 51.537998M 48.084 51.537998C 48.084 52.090286 48.531715 52.537998 49.084 52.537998C 49.636284 52.537998 50.084 52.090286 50.084 51.537998C 50.084 50.985714 49.636284 50.537998 49.084 50.537998C 48.531715 50.537998 48.084 50.985714 48.084 51.537998M 24.074001 40.388L 24.074001 36.302002M 39.084 36.302002L 50.591999 36.302002L 50.591999 46.538002L 39.084 46.538002ZM 44.838001 40.388L 44.838001 36.302002M 54.543999 21.439999L 44.563999 11.462L 44.563999 17.948L 16.048 17.948L 16.048 25.262001L 44.563999 25.262001L 44.563999 31.42L 54.543999 21.439999Z"></path></g></g></g><g id="g-root-tx__6h9fb3dp5ot-stroke" data-item-order="1000000000" transform="translate(231, 312)"></g><g id="g-root-path_1qcl1pz3d5k3n-stroke" data-item-order="1000000000" transform="translate(117, 135)"><g id="path_1qcl1pz3d5k3n-stroke" fill="none" stroke-linecap="round" stroke-linejoin="round" stroke-miterlimit="4" stroke="#92bd39" stroke-width="2"><g><path d="M 36.17625 13.47875C 37.141434 14.250635 37.880699 15.268422 38.31625 16.425001M 38.27375 21.383751C 37.818005 22.532976 37.060535 23.537897 36.081249 24.2925M 13.82375 37.771248C 12.858569 36.999367 12.119304 35.981579 11.68375 34.825001M 11.72625 29.866249C 12.181995 28.717022 12.939464 27.712101 13.91875 26.9575M 30 11.875L 31.875 11.875M 19.375 39.375L 21.25 39.375M 27.5 25.625L 31.25 25.625M 18.75 25.625L 22.5 25.625M 25 17.5L 25 39.375M 21.25 21.25L 25 17.5L 28.75 21.25M 23.125 12.5C 23.125 13.535534 23.964466 14.375 25 14.375C 26.035534 14.375 26.875 13.535534 26.875 12.5C 26.875 11.464466 26.035534 10.625 25 10.625C 23.964466 10.625 23.125 11.464466 23.125 12.5Z"></path></g></g></g><g id="g-root-2_djtddj3d8dfv-stroke" data-item-order="1000000000" transform="translate(435, 339)"><g id="2_djtddj3d8dfv-stroke" fill="none" stroke-linecap="round" stroke-linejoin="round" stroke-miterlimit="4" stroke="#e0cb15" stroke-width="2"><g><path d="M 26.549999 26.862499C 26.766895 27.468079 26.876867 28.106754 26.875 28.75C 26.879839 31.440613 24.982626 33.759632 22.344379 34.287907C 19.706135 34.816185 17.062283 33.40646 16.030762 30.921431C 14.999239 28.436399 15.867588 25.568779 18.104412 24.073444C 20.341236 22.578108 23.323009 22.871887 25.225 24.775002M 30.424999 23.387501C 33.298004 28.214973 31.927299 34.44389 27.293205 37.619392C 22.659109 40.794891 16.355358 39.824871 12.89033 35.403084C 9.425303 30.981293 9.990674 24.628452 14.182097 20.88805C 18.37352 17.147648 24.7495 17.306065 28.75 21.25M 10.625 39.375L 13.7375 36.262501M 28.762501 36.262501L 31.875 39.375M 30.5375 19.4625L 30.0875 14.6L 34.0625 10.625L 35.400002 14.6L 39.375 15.9375L 35.400002 19.9125L 30.5375 19.4625ZM 33.75 16.25L 21.25 28.75"></path></g></g></g><g id="g-root-tx__qv9vqv3d8buy-stroke" data-item-order="1000000000" transform="translate(471, 342)"></g><g id="g-root-tx__1hq7r3dcjre-stroke" data-item-order="1000000000" transform="translate(27, 360)"></g><g id="g-root-goal_1lr59tj3dcl57-stroke" data-item-order="1000000000" transform="translate(117, 357)"><g id="goal_1lr59tj3dcl57-stroke" fill="none" stroke-linecap="round" stroke-linejoin="round" stroke-miterlimit="4" stroke="#de58a9" stroke-width="2"><g><path d="M 28.125 36.987499L 28.125 38.75M 34.375 39.375C 34.375 35.923222 31.576778 33.125 28.125 33.125C 24.673222 33.125 21.875 35.923222 21.875 39.375M 23.75 26.875C 23.750002 29.291246 25.708755 31.25 28.125002 31.25C 30.541246 31.25 32.5 29.291246 32.5 26.875002C 32.5 24.458755 30.541246 22.500002 28.125002 22.500002C 25.708755 22.500002 23.750002 24.458755 23.750002 26.875002M 19.4375 37.400002C 18.19207 36.622208 16.680744 36.3932 15.2608 36.76712C 13.840856 37.141041 12.63833 38.084694 11.9375 39.375M 13.3625 29.362499C 15.156505 31.193769 17.886879 31.743809 20.25 30.75M 12.85 31.25C 12.85 33.300358 14.512143 34.962502 16.5625 34.962502C 18.612858 34.962502 20.275 33.300358 20.275 31.25C 20.275 29.199644 18.612858 27.5375 16.5625 27.5375C 14.512143 27.5375 12.85 29.199644 12.85 31.25M 38.125 39.375L 38.125 10.625M 38.125 10.625L 30.625 10.625C 29.934643 10.625 29.375 11.184644 29.375 11.875L 29.375 15.625C 29.375 16.315355 29.934643 16.875 30.625 16.875L 38.125 16.875M 29.375 13.125L 21.25 13.125L 24.375 16.25L 21.25 19.375L 30.625 19.375C 31.315355 19.375 31.875 18.815355 31.875 18.125L 31.875 16.875M 24.625 24.25C 25.923149 25.494215 27.639874 26.207659 29.4375 26.25C 30.433136 26.2551 31.422338 26.090233 32.362503 25.762501"></path></g></g></g><g id="g-root-tx__hxrjef3d5kaq-stroke" data-item-order="1000000000" transform="translate(27, 138)"></g><g id="g-root-incr_dl2bjr3di58j-stroke" data-item-order="1000000000" transform="translate(207, 507)"><g id="incr_dl2bjr3di58j-stroke" fill="none" stroke-linecap="round" stroke-linejoin="round" stroke-miterlimit="4" stroke="#e55753" stroke-width="2"><g><path d="M 10.63 39.0625L 39.380001 39.0625M 15.625 39.0625L 15.625 35.9375C 15.625 35.592323 15.345179 35.3125 15 35.3125L 12.5 35.3125C 12.154822 35.3125 11.875 35.592323 11.875 35.9375L 11.875 39.0625M 23.125 39.0625L 23.125 30.9375C 23.125 30.592323 22.845177 30.3125 22.5 30.3125L 20 30.3125C 19.654821 30.3125 19.375 30.592323 19.375 30.9375L 19.375 39.0625M 30.625 39.0625L 30.625 25.9375C 30.625 25.592323 30.345177 25.3125 30 25.3125L 27.5 25.3125C 27.154823 25.3125 26.875 25.592323 26.875 25.9375L 26.875 39.0625M 38.125 39.0625L 38.125 20.9375C 38.125 20.592323 37.845177 20.3125 37.5 20.3125L 35 20.3125C 34.654823 20.3125 34.375 20.592323 34.375 20.9375L 34.375 39.0625M 13.755 26.5625L 36.255001 11.5625M 35.630001 16.5625L 36.255001 11.5625L 31.254999 10.9375"></path></g></g></g><g id="g-root-tx__qvwctz3di6te-stroke" data-item-order="1000000000" transform="translate(243, 510)"></g></g></g></svg>